M48
; DRILL file {KiCad (5.99.0-7519-ga8269b6380)} date 12/12/20 14:17:52
; FORMAT={-:-/ absolute / inch / decimal}
; #@! TF.CreationDate,2020-12-12T14:17:52-08:00
; #@! TF.GenerationSoftware,Kicad,Pcbnew,(5.99.0-7519-ga8269b6380)
; #@! TF.FileFunction,Plated,1,4,PTH
FMAT,2
INCH
T1C0.0098
T2C0.0118
T3C0.0236
T4C0.0394
T5C0.0400
%
G90
G05
T1
X0.0492Y0.398
X0.1142Y1.0587
X0.1319Y0.5276
X0.1441Y0.8346
X0.1539Y1.0571
X0.1555Y0.6535
X0.1724Y0.6008
X0.2024Y0.6728
X0.2071Y0.7571
X0.2075Y1.0465
X0.2079Y0.7295
X0.2126Y0.787
X0.2185Y0.3228
X0.2303Y0.2717
X0.2559Y0.0413
X0.2795Y0.9406
X0.2819Y0.5224
X0.2827Y1.1323
X0.2898Y0.2283
X0.3012Y0.1358
X0.3039Y1.163
X0.3039Y0.5807
X0.3055Y0.8693
X0.3059Y0.6646
X0.3059Y0.5409
X0.3063Y0.9146
X0.3071Y0.6205
X0.3075Y0.7846
X0.3126Y1.039
X0.3146Y0.9736
X0.3189Y0.2717
X0.324Y0.315
X0.3374Y0.4134
X0.3406Y0.3441
X0.3425Y0.474
X0.3512Y0.2937
X0.3622Y0.1102
X0.3697Y0.4756
X0.4047Y1.0496
X0.4063Y0.6697
X0.4067Y0.7929
X0.4142Y0.8949
X0.4146Y0.4386
X0.4201Y0.2689
X0.4217Y0.5469
X0.4291Y1.0043
X0.4413Y0.9098
X0.4469Y0.3126
X0.4484Y0.3917
X0.4488Y1.1102
X0.4496Y0.524
X0.4626Y0.998
X0.4732Y0.6268
X0.4744Y1.0866
X0.4866Y0.5815
X0.4957Y0.8701
X0.4965Y0.7949
X0.5055Y0.6004
X0.5087Y0.4776
X0.5228Y0.8594
X0.526Y0.5839
X0.5406Y1.0555
X0.5472Y0.6224
X0.5768Y0.2953
X0.5866Y0.3209
X0.5945Y0.5094
X0.624Y0.585
X0.6327Y1.0067
X0.6378Y0.0984
X0.6386Y0.978
X0.6409Y0.8504
X0.6419Y0.5091
X0.6634Y0.8713
X0.6634Y0.4134
X0.6791Y0.9937
X0.6843Y0.8496
X0.6933Y0.3512
X0.7035Y0.8709
X0.7098Y0.4776
X0.7248Y0.852
X0.739Y0.8209
X0.7402Y0.6476
X0.7421Y0.5843
X0.7583Y0.6213
X0.7736Y1.1449
X0.8031Y0.3543
X0.8181Y0.987
X0.8205Y0.8862
X0.8213Y0.8563
X0.8316Y0.7539
X0.8327Y0.5177
X0.8406Y0.5531
X0.8449Y0.337
X0.8465Y0.2323
X0.876Y0.2264
X0.8764Y0.4035
X0.8957Y0.9449
X0.8969Y0.8358
X0.9055Y0.5827
X0.9102Y0.5067
X0.922Y0.9028
X0.928Y0.7339
X0.9291Y0.5291
X0.9291Y0.2185
X0.9307Y0.4878
X0.9484Y0.4031
X0.9665Y0.9567
X0.9665Y0.2047
X0.9689Y0.4551
X0.9772Y0.8063
X0.9874Y0.3128
X0.9976Y0.8709
X1.0047Y0.7189
X1.0114Y0.337
X1.0228Y0.5165
X1.0236Y0.7425
X1.0406Y0.6602
X1.0417Y0.8492
X1.0421Y0.8201
X1.0429Y0.787
X1.0437Y1.0075
X1.0437Y0.724
X1.074Y0.7882
X1.0748Y0.6614
X1.0961Y0.3626
X1.0965Y0.2677
X1.1047Y0.7547
X1.106Y0.6299
X1.1063Y1.0079
X1.1063Y0.9764
X1.1063Y0.8189
X1.1067Y0.5673
X1.1067Y0.5358
X1.1083Y0.5024
X1.1181Y0.2276
X1.1248Y0.3303
X1.1358Y0.8799
X1.1366Y0.7547
X1.1378Y0.9449
X1.139Y0.5366
X1.1394Y0.7862
X1.1394Y0.726
X1.1634Y0.1516
X1.1677Y0.9465
X1.1693Y0.9134
X1.1693Y0.8504
X1.2005Y0.7874
X1.2006Y0.8502
X1.2012Y0.7559
X1.2016Y0.7232
X1.202Y0.8177
X1.2047Y0.1634
X1.2094Y0.2945
X1.2106Y0.2067
X1.2323Y0.9449
X1.2323Y0.7244
X1.2323Y0.6618
X1.2323Y0.6299
X1.2323Y0.187
X1.2327Y0.85
X1.2339Y0.8185
X1.2343Y0.7579
X1.2402Y0.237
X1.2429Y1.1614
X1.2437Y1.0634
X1.2547Y0.3665
X1.2553Y0.4478
X1.2634Y0.7555
X1.2634Y0.7236
X1.2634Y0.6933
X1.2634Y0.6618
X1.2638Y0.5984
X1.264Y0.8183
X1.2641Y0.8504
X1.272Y0.2563
X1.2799Y0.3567
X1.2949Y0.7555
X1.2953Y0.8819
X1.2953Y0.724
X1.2953Y0.4567
X1.2957Y0.85
X1.2957Y0.8185
X1.2957Y0.6933
X1.2957Y0.6622
X1.2969Y0.9122
X1.3055Y0.2988
X1.311Y1.0256
X1.313Y0.1988
X1.3248Y0.5689
X1.3256Y0.5031
X1.3264Y0.6618
X1.3265Y0.8189
X1.3266Y0.8506
X1.3268Y0.9449
X1.3268Y0.7559
X1.3268Y0.7244
X1.3268Y0.5354
X1.3287Y0.6004
X1.3386Y0.2067
X1.3406Y0.2709
X1.3449Y0.3354
X1.3453Y0.4205
X1.3578Y0.6622
X1.3579Y0.7878
X1.3583Y0.9134
X1.3583Y0.8504
X1.3583Y0.6933
X1.3583Y0.5669
X1.3583Y0.5039
X1.3583Y0.187
X1.378Y0.4291
X1.3878Y0.4961
X1.389Y0.7236
X1.389Y0.6925
X1.3894Y0.8185
X1.3898Y0.7874
X1.3898Y0.7559
X1.3898Y0.6614
X1.3898Y0.6299
X1.398Y0.3843
X1.4213Y0.5354
X1.4213Y0.5039
X1.4524Y0.5358
X1.4528Y0.9449
X1.4528Y0.6299
X1.4528Y0.5039
X1.4547Y0.3858
X1.4823Y0.5374
X1.4823Y0.5059
X1.4843Y0.3819
X1.4886Y1.0634
X1.5004Y1.1575
X1.5118Y0.3976
X1.5413Y1.063
X1.5433Y1.1575
X1.5539Y1.0043
X1.5591Y0.5177
X1.5846Y1.065
X1.6142Y0.811
X1.6161Y1.124
X1.6181Y0.9331
X1.6417Y0.3111
X1.6476Y0.622
X1.6516Y0.5394
X1.6575Y0.6772
X1.6732Y0.937
X1.6752Y1.1406
X1.6752Y1.0335
X1.6772Y0.2442
X1.6795Y0.4358
X1.6831Y0.7815
X1.6949Y0.6831
X1.6969Y0.563
X1.6969Y0.5217
X1.6988Y0.5965
X1.7244Y1.0335
X1.7244Y0.439
X1.7244Y0.3425
X1.7264Y0.937
X1.7382Y0.7165
X1.7382Y0.6417
X1.7382Y0.565
X1.7402Y0.7815
X1.7697Y0.5236
X1.7717Y0.4409
X1.7717Y0.3425
X1.7736Y0.7165
X1.7756Y1.0335
X1.7756Y0.6811
X1.7776Y0.6398
X1.7776Y0.5669
X1.8071Y0.811
X1.8169Y0.6004
X1.8228Y0.3976
X1.8287Y0.878
X1.8287Y0.8524
X1.8327Y1.0827
X1.8346Y0.9035
X1.8346Y0.5157
X1.8386Y0.8268
X1.8878Y0.4252
X1.8976Y0.4961
X1.935Y1.0846
T2
X0.0748Y0.2992
T4
X0.4882Y0.1783
X0.4882Y0.0783
X0.5882Y0.1783
X0.5882Y0.0783
X0.6882Y0.1783
X0.6882Y0.0783
X0.7882Y0.1783
X0.7882Y0.0783
X0.9882Y1.3783
X0.9882Y1.2783
X0.9882Y0.0783
X1.0882Y0.0783
X1.1882Y0.0783
X1.2882Y0.0783
X1.3882Y0.0783
X1.4882Y0.0783
X1.5882Y0.3783
X1.5882Y0.2783
X1.5882Y0.0783
X2.0244Y0.2783
X2.1244Y0.2783
T5
X0.2882Y1.3783
X0.2882Y1.2783
X0.3882Y1.3783
X0.3882Y1.2783
X0.4882Y1.3783
X0.4882Y1.2783
X0.5882Y1.3783
X0.5882Y1.2783
X0.6882Y1.3783
X0.6882Y1.2783
X0.7882Y1.3783
X0.7882Y1.2783
X1.1882Y1.3783
X1.1882Y1.2783
X1.2882Y1.3783
X1.2882Y1.2783
X1.3882Y1.3783
X1.3882Y1.2783
X1.4882Y1.3783
X1.4882Y1.2783
X1.5882Y1.3783
X1.5882Y1.2783
X1.6882Y1.3783
X1.6882Y1.2783
X2.0244Y0.9783
X2.0244Y0.8783
X2.0244Y0.7783
X2.0244Y0.6783
X2.0244Y0.5783
X2.0244Y0.4783
X2.1244Y0.9783
X2.1244Y0.8783
X2.1244Y0.7783
X2.1244Y0.6783
X2.1244Y0.5783
X2.1244Y0.4783
T3
G00X0.0689Y0.8984
M15
G01X0.0453Y0.8984
M16
G05
G00X0.0689Y0.5583
M15
G01X0.0453Y0.5583
M16
G05
G00X0.2433Y0.8984
M15
G01X0.2Y0.8984
M16
G05
G00X0.2433Y0.5583
M15
G01X0.2Y0.5583
M16
G05
T0
M30
