G04 #@! TF.GenerationSoftware,KiCad,Pcbnew,(5.99.0-7519-ga8269b6380)*
G04 #@! TF.CreationDate,2020-12-12T14:20:42-08:00*
G04 #@! TF.ProjectId,icebreaker++,69636562-7265-4616-9b65-722b2b2e6b69,V0.1*
G04 #@! TF.SameCoordinates,PX1c9c380PY3ef1480*
G04 #@! TF.FileFunction,Soldermask,Bot*
G04 #@! TF.FilePolarity,Negative*
%FSLAX46Y46*%
G04 Gerber Fmt 4.6, Leading zero omitted, Abs format (unit mm)*
G04 Created by KiCad (PCBNEW (5.99.0-7519-ga8269b6380)) date 2020-12-12 14:20:42*
%MOMM*%
%LPD*%
G01*
G04 APERTURE LIST*
G04 Aperture macros list*
%AMRoundRect*
0 Rectangle with rounded corners*
0 $1 Rounding radius*
0 $2 $3 $4 $5 $6 $7 $8 $9 X,Y pos of 4 corners*
0 Add a 4 corners polygon primitive as box body*
4,1,4,$2,$3,$4,$5,$6,$7,$8,$9,$2,$3,0*
0 Add four circle primitives for the rounded corners*
1,1,$1+$1,$2,$3,0*
1,1,$1+$1,$4,$5,0*
1,1,$1+$1,$6,$7,0*
1,1,$1+$1,$8,$9,0*
0 Add four rect primitives between the rounded corners*
20,1,$1+$1,$2,$3,$4,$5,0*
20,1,$1+$1,$4,$5,$6,$7,0*
20,1,$1+$1,$6,$7,$8,$9,0*
20,1,$1+$1,$8,$9,$2,$3,0*%
G04 Aperture macros list end*
%ADD10RoundRect,0.365440X0.548160X-0.548160X0.548160X0.548160X-0.548160X0.548160X-0.548160X-0.548160X0*%
%ADD11O,1.827200X1.827200*%
%ADD12C,1.827200*%
%ADD13RoundRect,0.365440X0.548160X0.548160X-0.548160X0.548160X-0.548160X-0.548160X0.548160X-0.548160X0*%
%ADD14C,3.300000*%
%ADD15RoundRect,0.360000X0.540000X-0.540000X0.540000X0.540000X-0.540000X0.540000X-0.540000X-0.540000X0*%
%ADD16O,1.800000X1.800000*%
%ADD17RoundRect,0.360000X-0.540000X-0.540000X0.540000X-0.540000X0.540000X0.540000X-0.540000X0.540000X0*%
%ADD18RoundRect,0.360000X-0.540000X0.540000X-0.540000X-0.540000X0.540000X-0.540000X0.540000X0.540000X0*%
%ADD19C,0.750000*%
%ADD20O,1.700000X1.100000*%
%ADD21O,2.200000X1.100000*%
%ADD22RoundRect,0.275000X-1.100000X-0.275000X1.100000X-0.275000X1.100000X0.275000X-1.100000X0.275000X0*%
G04 APERTURE END LIST*
D10*
X51420000Y24850000D03*
D11*
X51420000Y22310000D03*
X51420000Y19770000D03*
X51420000Y17230000D03*
X51420000Y14690000D03*
D12*
X51420000Y12150000D03*
D11*
X53960000Y24850000D03*
X53960000Y22310000D03*
X53960000Y19770000D03*
X53960000Y17230000D03*
X53960000Y14690000D03*
X53960000Y12150000D03*
D13*
X30180000Y32470000D03*
D11*
X32720000Y32470000D03*
X35260000Y32470000D03*
X37800000Y32470000D03*
X40340000Y32470000D03*
D12*
X42880000Y32470000D03*
D11*
X30180000Y35010000D03*
X32720000Y35010000D03*
X35260000Y35010000D03*
X37800000Y35010000D03*
X40340000Y35010000D03*
X42880000Y35010000D03*
D14*
X53000000Y34000000D03*
X3000000Y3000000D03*
X53000000Y3000000D03*
D15*
X12400000Y1990000D03*
D16*
X12400000Y4530000D03*
X14940000Y1990000D03*
X14940000Y4530000D03*
X17480000Y1990000D03*
X17480000Y4530000D03*
X20020000Y1990000D03*
X20020000Y4530000D03*
D14*
X3000000Y34000000D03*
D17*
X51420000Y7070000D03*
D16*
X53960000Y7070000D03*
D13*
X7320000Y32470000D03*
D11*
X9860000Y32470000D03*
X12400000Y32470000D03*
X14940000Y32470000D03*
X17480000Y32470000D03*
D12*
X20020000Y32470000D03*
D11*
X7320000Y35010000D03*
X9860000Y35010000D03*
X12400000Y35010000D03*
X14940000Y35010000D03*
X17480000Y35010000D03*
X20020000Y35010000D03*
D15*
X25100000Y32470000D03*
D16*
X25100000Y35010000D03*
D15*
X25100000Y1990000D03*
D16*
X27640000Y1990000D03*
X30180000Y1990000D03*
X32720000Y1990000D03*
X35260000Y1990000D03*
X37800000Y1990000D03*
X40340000Y1990000D03*
D18*
X40340000Y9610000D03*
D16*
X40340000Y7070000D03*
D19*
X5100000Y21390000D03*
X5100000Y15610000D03*
D20*
X1450000Y14180000D03*
D21*
X5630000Y14180000D03*
X5630000Y22820000D03*
D20*
X1450000Y22820000D03*
D22*
X1840000Y17230000D03*
X1840000Y19770000D03*
X1835000Y15530000D03*
X1835000Y21510000D03*
M02*
