%TF.GenerationSoftware,KiCad,Pcbnew,(5.99.0-7519-ga8269b6380)*%
%TF.CreationDate,2020-12-12T14:21:00-08:00*%
%TF.ProjectId,icebreaker++,69636562-7265-4616-9b65-722b2b2e6b69,V0.1*%
%TF.SameCoordinates,PX1c9c380PY3ef1480*%
%TF.FileFunction,Plated,1,4,PTH,Mixed*%
%TF.FilePolarity,Positive*%
%FSLAX46Y46*%
G04 Gerber Fmt 4.6, Leading zero omitted, Abs format (unit mm)*
G04 Created by KiCad (PCBNEW (5.99.0-7519-ga8269b6380)) date 2020-12-12 14:21:00*
%MOMM*%
%LPD*%
G01*
G04 APERTURE LIST*
%TA.AperFunction,ViaDrill*%
%ADD10C,0.250000*%
%TD*%
%TA.AperFunction,ViaDrill*%
%ADD11C,0.300000*%
%TD*%
G04 aperture for slot hole*
%TA.AperFunction,ComponentDrill*%
%ADD12C,0.600000*%
%TD*%
%TA.AperFunction,ComponentDrill*%
%ADD13C,1.000000*%
%TD*%
%TA.AperFunction,ComponentDrill*%
%ADD14C,1.016000*%
%TD*%
G04 APERTURE END LIST*
D10*
X1250000Y10110000D03*
X2900000Y26890000D03*
X3350000Y13400000D03*
X3660000Y21200000D03*
X3910000Y26850000D03*
X3950000Y16600000D03*
X4380000Y15260000D03*
X5140000Y17090000D03*
X5260000Y19230000D03*
X5270000Y26580000D03*
X5281528Y18530329D03*
X5400000Y19990000D03*
X5550000Y8200000D03*
X5850000Y6900000D03*
X6500000Y1050000D03*
X7100000Y23890000D03*
X7160000Y13270000D03*
X7180000Y28760000D03*
X7360000Y5800000D03*
X7650000Y3450000D03*
X7720000Y29540000D03*
X7720000Y14750000D03*
X7760000Y22080000D03*
X7770000Y16880000D03*
X7770000Y13740000D03*
X7780000Y23230000D03*
X7800000Y15760000D03*
X7810000Y19930000D03*
X7940000Y26390000D03*
X7990000Y24730000D03*
X8100000Y6900000D03*
X8230000Y8000000D03*
X8570000Y10500000D03*
X8650000Y8740000D03*
X8700000Y12040000D03*
X8920000Y7460000D03*
X9200000Y2800000D03*
X9390000Y12080000D03*
X10280000Y26660000D03*
X10320000Y17010000D03*
X10330000Y20140000D03*
X10520000Y22730000D03*
X10530000Y11140000D03*
X10670000Y6830000D03*
X10710010Y13890010D03*
X10900000Y25510000D03*
X11210000Y23110000D03*
X11350000Y7940000D03*
X11390000Y9950000D03*
X11400000Y28200000D03*
X11420000Y13310000D03*
X11750000Y25350000D03*
X12020000Y15920000D03*
X12050000Y27600000D03*
X12360000Y14770000D03*
X12590000Y22100000D03*
X12610000Y20190000D03*
X12840000Y15250000D03*
X12920000Y12130000D03*
X13280000Y21830000D03*
X13360000Y14830000D03*
X13730000Y26810000D03*
X13900000Y15810000D03*
X14650000Y7500000D03*
X14900000Y8150000D03*
X15100000Y12940000D03*
X15850000Y14860000D03*
X16070000Y25570000D03*
X16200000Y2500000D03*
X16220000Y24840000D03*
X16280000Y21600000D03*
X16305000Y12930000D03*
X16850000Y22130000D03*
X16850000Y10500000D03*
X17250000Y25240000D03*
X17380000Y21580000D03*
X17610000Y8920000D03*
X17870000Y22120000D03*
X18030000Y12130000D03*
X18410000Y21640000D03*
X18770000Y20850000D03*
X18800000Y16450000D03*
X18850000Y14840000D03*
X19260000Y15780000D03*
X19650000Y29080000D03*
X20400000Y9000000D03*
X20780000Y25070000D03*
X20840000Y22510000D03*
X20860000Y21750000D03*
X21121978Y19148022D03*
X21150000Y13150000D03*
X21350000Y14050000D03*
X21460000Y8560000D03*
X21500000Y5900000D03*
X22250000Y5750000D03*
X22260000Y10250000D03*
X22750000Y24000000D03*
X22780000Y21230000D03*
X23000000Y14800000D03*
X23120000Y12870000D03*
X23420000Y22930000D03*
X23570000Y18640000D03*
X23600000Y13440000D03*
X23600000Y5550000D03*
X23640000Y12390000D03*
X24090000Y10240000D03*
X24550000Y24300000D03*
X24550000Y5200000D03*
X24610000Y11560000D03*
X24820000Y20480000D03*
X25080000Y7945000D03*
X25340000Y22120000D03*
X25520000Y18260000D03*
X25690000Y8560000D03*
X25980000Y13120000D03*
X26000000Y18860000D03*
X26430000Y16770000D03*
X26460000Y21570000D03*
X26470000Y20830000D03*
X26490000Y19990000D03*
X26510000Y25590000D03*
X26510000Y18390000D03*
X27280000Y20020000D03*
X27300000Y16800000D03*
X27840000Y9210000D03*
X27850000Y6800000D03*
X28060000Y19170000D03*
X28091920Y16000000D03*
X28100000Y25600000D03*
X28100000Y24800000D03*
X28100000Y20800000D03*
X28110000Y14410000D03*
X28110000Y13610000D03*
X28150000Y12760000D03*
X28400000Y5780000D03*
X28570000Y8390000D03*
X28850000Y22350000D03*
X28870000Y19170000D03*
X28900000Y24000000D03*
X28930000Y13630000D03*
X28940000Y19970000D03*
X28940000Y18440000D03*
X29550000Y3850000D03*
X29660000Y24040000D03*
X29700000Y23200000D03*
X29700000Y21600000D03*
X30491920Y20000000D03*
X30495981Y21595981D03*
X30510000Y19200000D03*
X30520202Y18370178D03*
X30530000Y20770000D03*
X30600000Y4150000D03*
X30720000Y7480000D03*
X30750000Y5250000D03*
X31300000Y24000000D03*
X31300000Y18400000D03*
X31300000Y16810000D03*
X31300000Y16000000D03*
X31300000Y4750000D03*
X31310000Y21590000D03*
X31340000Y20790000D03*
X31350000Y19250000D03*
X31500000Y6020000D03*
X31570000Y29500000D03*
X31590000Y27010000D03*
X31870000Y9310000D03*
X31885000Y11375000D03*
X32090000Y19190000D03*
X32090000Y18380000D03*
X32090000Y17610000D03*
X32090000Y16810000D03*
X32100000Y15200000D03*
X32106001Y20785701D03*
X32109063Y21599039D03*
X32310000Y6510000D03*
X32510000Y9060000D03*
X32890000Y19190000D03*
X32900000Y22400000D03*
X32900000Y18390000D03*
X32900000Y11600000D03*
X32910000Y21590000D03*
X32910000Y20790000D03*
X32910000Y17610000D03*
X32910000Y16820000D03*
X32940000Y23170000D03*
X33160000Y7590000D03*
X33300000Y26050000D03*
X33350000Y5050000D03*
X33650000Y14450000D03*
X33670000Y12780000D03*
X33690000Y16810000D03*
X33691922Y20800000D03*
X33695981Y21604019D03*
X33700000Y24000000D03*
X33700000Y19200000D03*
X33700000Y18400000D03*
X33700000Y13600000D03*
X33750000Y15250000D03*
X34000000Y5250000D03*
X34050000Y6880000D03*
X34160000Y8520000D03*
X34170000Y10680000D03*
X34488903Y16819735D03*
X34490000Y20010000D03*
X34500000Y23200000D03*
X34500000Y21600000D03*
X34500000Y17610000D03*
X34500000Y14400000D03*
X34500000Y12800000D03*
X34500000Y4750000D03*
X35000000Y10900000D03*
X35250000Y12600000D03*
X35280000Y18380000D03*
X35280000Y17590000D03*
X35290000Y20790000D03*
X35300000Y20000000D03*
X35300000Y19200000D03*
X35300000Y16800000D03*
X35300000Y16000000D03*
X35510000Y9760000D03*
X36100000Y13600000D03*
X36100000Y12800000D03*
X36890000Y13610000D03*
X36900000Y24000000D03*
X36900000Y16000000D03*
X36900000Y12800000D03*
X36950000Y9800000D03*
X37650000Y13650000D03*
X37650000Y12850000D03*
X37700000Y9700000D03*
X37810000Y27010000D03*
X38110000Y29400000D03*
X38400000Y10100000D03*
X39150000Y27000000D03*
X39200000Y29400000D03*
X39470000Y25510000D03*
X39600000Y13150000D03*
X40250000Y27050000D03*
X41000000Y20600000D03*
X41050000Y28550000D03*
X41100000Y23700000D03*
X41700000Y7902500D03*
X41850000Y15800000D03*
X41950000Y13700000D03*
X42100000Y17200000D03*
X42500000Y23800000D03*
X42550000Y28970000D03*
X42550000Y26250000D03*
X42600000Y6202500D03*
X42660000Y11070000D03*
X42750000Y19850000D03*
X43050000Y17350000D03*
X43100000Y14300000D03*
X43100000Y13250000D03*
X43150000Y15150000D03*
X43800000Y26250000D03*
X43800000Y11150000D03*
X43800000Y8700000D03*
X43850000Y23800000D03*
X44150000Y18200000D03*
X44150000Y16300000D03*
X44150000Y14350000D03*
X44200000Y19850000D03*
X44950000Y13300000D03*
X45000000Y11200000D03*
X45000000Y8700000D03*
X45050000Y18200000D03*
X45100000Y26250000D03*
X45100000Y17300000D03*
X45150000Y16250000D03*
X45150000Y14400000D03*
X45900000Y20600000D03*
X46150000Y15250000D03*
X46300000Y10100000D03*
X46450000Y22300000D03*
X46450000Y21650000D03*
X46550000Y27500000D03*
X46600000Y22950000D03*
X46600000Y13100000D03*
X46700000Y21000000D03*
X47950000Y10800000D03*
X48200000Y12600000D03*
X49150000Y27550000D03*
D11*
X1900000Y7600000D03*
D12*
%TO.C,J24*%
X1150000Y22820000D02*
X1750000Y22820000D01*
X1150000Y14180000D02*
X1750000Y14180000D01*
X5080000Y22820000D02*
X6180000Y22820000D01*
X5080000Y14180000D02*
X6180000Y14180000D01*
D13*
%TO.C,J25*%
X12400000Y4530000D03*
X12400000Y1990000D03*
X14940000Y4530000D03*
X14940000Y1990000D03*
X17480000Y4530000D03*
X17480000Y1990000D03*
X20020000Y4530000D03*
X20020000Y1990000D03*
%TO.C,J26*%
X25100000Y35010000D03*
X25100000Y32470000D03*
%TO.C,J20*%
X25100000Y1990000D03*
X27640000Y1990000D03*
X30180000Y1990000D03*
X32720000Y1990000D03*
X35260000Y1990000D03*
X37800000Y1990000D03*
%TO.C,J28*%
X40340000Y9610000D03*
X40340000Y7070000D03*
%TO.C,J20*%
X40340000Y1990000D03*
%TO.C,J22*%
X51420000Y7070000D03*
X53960000Y7070000D03*
D14*
%TO.C,J23*%
X7320000Y35010000D03*
X7320000Y32470000D03*
X9860000Y35010000D03*
X9860000Y32470000D03*
X12400000Y35010000D03*
X12400000Y32470000D03*
X14940000Y35010000D03*
X14940000Y32470000D03*
X17480000Y35010000D03*
X17480000Y32470000D03*
X20020000Y35010000D03*
X20020000Y32470000D03*
%TO.C,J27*%
X30180000Y35010000D03*
X30180000Y32470000D03*
X32720000Y35010000D03*
X32720000Y32470000D03*
X35260000Y35010000D03*
X35260000Y32470000D03*
X37800000Y35010000D03*
X37800000Y32470000D03*
X40340000Y35010000D03*
X40340000Y32470000D03*
X42880000Y35010000D03*
X42880000Y32470000D03*
%TO.C,J21*%
X51420000Y24850000D03*
X51420000Y22310000D03*
X51420000Y19770000D03*
X51420000Y17230000D03*
X51420000Y14690000D03*
X51420000Y12150000D03*
X53960000Y24850000D03*
X53960000Y22310000D03*
X53960000Y19770000D03*
X53960000Y17230000D03*
X53960000Y14690000D03*
X53960000Y12150000D03*
M02*
