G04 #@! TF.GenerationSoftware,KiCad,Pcbnew,(5.99.0-7519-ga8269b6380)*
G04 #@! TF.CreationDate,2020-12-12T14:20:42-08:00*
G04 #@! TF.ProjectId,icebreaker++,69636562-7265-4616-9b65-722b2b2e6b69,V0.1*
G04 #@! TF.SameCoordinates,PX1c9c380PY3ef1480*
G04 #@! TF.FileFunction,Legend,Top*
G04 #@! TF.FilePolarity,Positive*
%FSLAX46Y46*%
G04 Gerber Fmt 4.6, Leading zero omitted, Abs format (unit mm)*
G04 Created by KiCad (PCBNEW (5.99.0-7519-ga8269b6380)) date 2020-12-12 14:20:42*
%MOMM*%
%LPD*%
G01*
G04 APERTURE LIST*
G04 Aperture macros list*
%AMRoundRect*
0 Rectangle with rounded corners*
0 $1 Rounding radius*
0 $2 $3 $4 $5 $6 $7 $8 $9 X,Y pos of 4 corners*
0 Add a 4 corners polygon primitive as box body*
4,1,4,$2,$3,$4,$5,$6,$7,$8,$9,$2,$3,0*
0 Add four circle primitives for the rounded corners*
1,1,$1+$1,$2,$3,0*
1,1,$1+$1,$4,$5,0*
1,1,$1+$1,$6,$7,0*
1,1,$1+$1,$8,$9,0*
0 Add four rect primitives between the rounded corners*
20,1,$1+$1,$2,$3,$4,$5,0*
20,1,$1+$1,$4,$5,$6,$7,0*
20,1,$1+$1,$6,$7,$8,$9,0*
20,1,$1+$1,$8,$9,$2,$3,0*%
G04 Aperture macros list end*
%ADD10C,0.200000*%
%ADD11C,0.250000*%
%ADD12C,0.187500*%
%ADD13C,0.125000*%
%ADD14C,0.120000*%
%ADD15C,0.150000*%
%ADD16RoundRect,0.365440X0.548160X-0.548160X0.548160X0.548160X-0.548160X0.548160X-0.548160X-0.548160X0*%
%ADD17O,1.827200X1.827200*%
%ADD18C,1.827200*%
%ADD19RoundRect,0.365440X0.548160X0.548160X-0.548160X0.548160X-0.548160X-0.548160X0.548160X-0.548160X0*%
%ADD20C,3.300000*%
%ADD21RoundRect,0.172500X0.172500X0.197500X-0.172500X0.197500X-0.172500X-0.197500X0.172500X-0.197500X0*%
%ADD22RoundRect,0.360000X0.540000X-0.540000X0.540000X0.540000X-0.540000X0.540000X-0.540000X-0.540000X0*%
%ADD23O,1.800000X1.800000*%
%ADD24RoundRect,0.360000X-0.540000X-0.540000X0.540000X-0.540000X0.540000X0.540000X-0.540000X0.540000X0*%
%ADD25RoundRect,0.172500X0.197500X-0.172500X0.197500X0.172500X-0.197500X0.172500X-0.197500X-0.172500X0*%
%ADD26RoundRect,0.172500X-0.172500X-0.197500X0.172500X-0.197500X0.172500X0.197500X-0.172500X0.197500X0*%
%ADD27RoundRect,0.050000X0.325000X-0.530000X0.325000X0.530000X-0.325000X0.530000X-0.325000X-0.530000X0*%
%ADD28RoundRect,0.087500X-0.362500X-0.087500X0.362500X-0.087500X0.362500X0.087500X-0.362500X0.087500X0*%
%ADD29RoundRect,0.087500X-0.087500X-0.362500X0.087500X-0.362500X0.087500X0.362500X-0.087500X0.362500X0*%
%ADD30RoundRect,0.253650X-1.971349X-1.971349X1.971349X-1.971349X1.971349X1.971349X-1.971349X1.971349X0*%
%ADD31RoundRect,0.243750X-0.281250X0.243750X-0.281250X-0.243750X0.281250X-0.243750X0.281250X0.243750X0*%
%ADD32RoundRect,0.243750X0.243750X0.281250X-0.243750X0.281250X-0.243750X-0.281250X0.243750X-0.281250X0*%
%ADD33RoundRect,0.172500X-0.197500X0.172500X-0.197500X-0.172500X0.197500X-0.172500X0.197500X0.172500X0*%
%ADD34RoundRect,0.050000X0.200000X-0.250000X0.200000X0.250000X-0.200000X0.250000X-0.200000X-0.250000X0*%
%ADD35RoundRect,0.050000X0.150000X-0.250000X0.150000X0.250000X-0.150000X0.250000X-0.150000X-0.250000X0*%
%ADD36RoundRect,0.360000X-0.540000X0.540000X-0.540000X-0.540000X0.540000X-0.540000X0.540000X0.540000X0*%
%ADD37RoundRect,0.050000X-0.250000X-0.200000X0.250000X-0.200000X0.250000X0.200000X-0.250000X0.200000X0*%
%ADD38RoundRect,0.050000X-0.250000X-0.150000X0.250000X-0.150000X0.250000X0.150000X-0.250000X0.150000X0*%
%ADD39RoundRect,0.243750X0.281250X-0.243750X0.281250X0.243750X-0.281250X0.243750X-0.281250X-0.243750X0*%
%ADD40RoundRect,0.243750X-0.243750X-0.281250X0.243750X-0.281250X0.243750X0.281250X-0.243750X0.281250X0*%
%ADD41RoundRect,0.050000X-0.325000X0.525000X-0.325000X-0.525000X0.325000X-0.525000X0.325000X0.525000X0*%
%ADD42RoundRect,0.275000X-0.525000X-0.275000X0.525000X-0.275000X0.525000X0.275000X-0.525000X0.275000X0*%
%ADD43RoundRect,0.175000X0.175000X-0.475000X0.175000X0.475000X-0.175000X0.475000X-0.175000X-0.475000X0*%
%ADD44RoundRect,0.050000X-0.325000X0.530000X-0.325000X-0.530000X0.325000X-0.530000X0.325000X0.530000X0*%
%ADD45RoundRect,0.050000X-0.530000X-0.325000X0.530000X-0.325000X0.530000X0.325000X-0.530000X0.325000X0*%
%ADD46RoundRect,0.175000X0.175000X-0.850000X0.175000X0.850000X-0.175000X0.850000X-0.175000X-0.850000X0*%
%ADD47C,0.750000*%
%ADD48RoundRect,0.050000X-0.725000X0.300000X-0.725000X-0.300000X0.725000X-0.300000X0.725000X0.300000X0*%
%ADD49RoundRect,0.050000X-0.725000X0.150000X-0.725000X-0.150000X0.725000X-0.150000X0.725000X0.150000X0*%
%ADD50O,1.700000X1.100000*%
%ADD51O,2.200000X1.100000*%
%ADD52C,0.450000*%
%ADD53RoundRect,0.268750X-0.481250X0.268750X-0.481250X-0.268750X0.481250X-0.268750X0.481250X0.268750X0*%
%ADD54RoundRect,0.050000X0.187500X-0.250000X0.187500X0.250000X-0.187500X0.250000X-0.187500X-0.250000X0*%
%ADD55RoundRect,0.050000X0.150000X-0.325000X0.150000X0.325000X-0.150000X0.325000X-0.150000X-0.325000X0*%
%ADD56C,0.470000*%
%ADD57RoundRect,0.175000X-0.675000X-0.175000X0.675000X-0.175000X0.675000X0.175000X-0.675000X0.175000X0*%
G04 APERTURE END LIST*
D10*
X6050000Y33232000D02*
X6050000Y34247999D01*
X16209999Y31073000D02*
X6050000Y31072999D01*
X6050000Y35772000D02*
X6050000Y36407000D01*
X16209999Y31073000D02*
X16591000Y31073000D01*
X16209999Y31073000D02*
X16210000Y36407000D01*
X20909000Y31073000D02*
X21290000Y31073000D01*
X21290000Y35899000D02*
X21290000Y36407000D01*
X6050000Y36407000D02*
X18750000Y36407000D01*
X21290000Y33232000D02*
X21290000Y34248000D01*
X18750000Y31708000D02*
X18750000Y36407000D01*
X18750000Y36407000D02*
X21290000Y36407000D01*
X6050000Y31072999D02*
X6050000Y31708000D01*
X39069999Y31073000D02*
X39324000Y31073000D01*
X28910000Y33232000D02*
X28910000Y34247999D01*
X44150000Y31073000D02*
X44150000Y31708000D01*
X43769000Y31073000D02*
X44150000Y31073000D01*
X41610000Y31708000D02*
X41610000Y36407000D01*
X39069999Y31073000D02*
X39070000Y36407000D01*
X44150000Y33232000D02*
X44150000Y35137000D01*
X41610000Y36407000D02*
X43642000Y36407000D01*
X28910000Y35772000D02*
X28910000Y36407000D01*
X28910000Y36407000D02*
X41610000Y36407000D01*
X39069999Y31073000D02*
X28910000Y31072999D01*
X28910000Y31072999D02*
X28910000Y31708000D01*
X23829999Y31073000D02*
X26370000Y31073000D01*
X26370000Y31073000D02*
X26370000Y36407000D01*
X23829999Y31073000D02*
X23830000Y36407000D01*
X23830000Y36407000D02*
X26370000Y36407000D01*
X50023000Y5800001D02*
X50023000Y8340000D01*
X55357000Y5799998D02*
X50023000Y5800001D01*
X55357000Y8340000D02*
X50023000Y8340000D01*
X55357000Y5799998D02*
X55357000Y8340000D01*
X50023000Y15960001D02*
X50023000Y15706000D01*
X52182000Y26120000D02*
X53197999Y26120000D01*
X54722000Y26120000D02*
X55357000Y26120000D01*
X50022999Y26120000D02*
X50658000Y26120000D01*
X50023000Y11261000D02*
X50023000Y10880000D01*
X50023000Y15960001D02*
X55357000Y15960000D01*
X50658000Y13420000D02*
X55357000Y13420000D01*
X55357000Y13420000D02*
X55357000Y10880000D01*
X55357000Y26120000D02*
X55357000Y13420000D01*
X50023000Y15960001D02*
X50022999Y26120000D01*
X39069999Y11007000D02*
X39070000Y5673000D01*
X41610002Y11007000D02*
X41609999Y5672999D01*
X39070000Y8340000D02*
X41610000Y8340000D01*
X41609999Y5672999D02*
X39070000Y5673000D01*
X41610002Y11007000D02*
X39069999Y11007000D01*
X21290000Y593000D02*
X21290000Y1990000D01*
X21290000Y593000D02*
X11130000Y593000D01*
X18496000Y5038000D02*
X19004000Y5038000D01*
X18750000Y5419000D02*
X18750000Y5673000D01*
X18750000Y4657000D02*
G75*
G03*
X18750000Y4657000I0J0D01*
G01*
X18242000Y5419000D02*
X19258000Y5419000D01*
X7700000Y6200000D02*
X7700000Y5600000D01*
X50023000Y10880000D02*
X50658000Y10880000D01*
X11130000Y5927000D02*
X21290000Y5927000D01*
X41610000Y593000D02*
X41610000Y3387000D01*
X21290000Y31073000D02*
X21290000Y31708000D01*
X18242000Y2879000D02*
X19258000Y2879000D01*
X54849000Y10880000D02*
X55357000Y10880000D01*
X18750000Y2117000D02*
G75*
G03*
X18750000Y2117000I0J0D01*
G01*
X52690000Y8340000D02*
X52690000Y5800000D01*
X52309000Y10880000D02*
X53071000Y10880000D01*
X9100000Y6200000D02*
X9700000Y6200000D01*
X18496000Y2498000D02*
X19004000Y2498000D01*
X23830000Y593000D02*
X41610000Y593000D01*
X8300000Y6200000D02*
X7700000Y6200000D01*
X23830000Y593000D02*
X23830000Y3387000D01*
X11130000Y5927000D02*
X11130000Y593000D01*
X30600000Y3325000D02*
X30900000Y3975000D01*
X9700000Y6200000D02*
X9700000Y5600000D01*
X21290000Y4530000D02*
X21290000Y3387000D01*
X23830000Y33740000D02*
X26370000Y33740000D01*
X18750000Y2879000D02*
X18750000Y3133000D01*
D11*
X8368095Y29731620D02*
X8368095Y30731620D01*
X8749047Y30731620D01*
X8844285Y30684000D01*
X8891904Y30636381D01*
X8939523Y30541143D01*
X8939523Y30398286D01*
X8891904Y30303048D01*
X8844285Y30255429D01*
X8749047Y30207810D01*
X8368095Y30207810D01*
X9368095Y29731620D02*
X9368095Y30731620D01*
X9701428Y30017334D01*
X10034761Y30731620D01*
X10034761Y29731620D01*
X10701428Y30731620D02*
X10891904Y30731620D01*
X10987142Y30684000D01*
X11082380Y30588762D01*
X11130000Y30398286D01*
X11130000Y30064953D01*
X11082380Y29874477D01*
X10987142Y29779239D01*
X10891904Y29731620D01*
X10701428Y29731620D01*
X10606190Y29779239D01*
X10510952Y29874477D01*
X10463333Y30064953D01*
X10463333Y30398286D01*
X10510952Y30588762D01*
X10606190Y30684000D01*
X10701428Y30731620D01*
X11558571Y29731620D02*
X11558571Y30731620D01*
X11796666Y30731620D01*
X11939523Y30684000D01*
X12034761Y30588762D01*
X12082380Y30493524D01*
X12130000Y30303048D01*
X12130000Y30160191D01*
X12082380Y29969715D01*
X12034761Y29874477D01*
X11939523Y29779239D01*
X11796666Y29731620D01*
X11558571Y29731620D01*
X13082380Y29731620D02*
X12510952Y29731620D01*
X12796666Y29731620D02*
X12796666Y30731620D01*
X12701428Y30588762D01*
X12606190Y30493524D01*
X12510952Y30445905D01*
X13463333Y30017334D02*
X13939523Y30017334D01*
X13368095Y29731620D02*
X13701428Y30731620D01*
X14034761Y29731620D01*
X23814285Y30112572D02*
X24576190Y30112572D01*
X24195238Y29731620D02*
X24195238Y30493524D01*
X25528571Y30731620D02*
X25052380Y30731620D01*
X25004761Y30255429D01*
X25052380Y30303048D01*
X25147619Y30350667D01*
X25385714Y30350667D01*
X25480952Y30303048D01*
X25528571Y30255429D01*
X25576190Y30160191D01*
X25576190Y29922096D01*
X25528571Y29826858D01*
X25480952Y29779239D01*
X25385714Y29731620D01*
X25147619Y29731620D01*
X25052380Y29779239D01*
X25004761Y29826858D01*
X25861904Y30731620D02*
X26195238Y29731620D01*
X26528571Y30731620D01*
X31156666Y29731620D02*
X31156666Y30731620D01*
X31537619Y30731620D01*
X31632857Y30684000D01*
X31680476Y30636381D01*
X31728095Y30541143D01*
X31728095Y30398286D01*
X31680476Y30303048D01*
X31632857Y30255429D01*
X31537619Y30207810D01*
X31156666Y30207810D01*
X32156666Y29731620D02*
X32156666Y30731620D01*
X32490000Y30017334D01*
X32823333Y30731620D01*
X32823333Y29731620D01*
X33490000Y30731620D02*
X33680476Y30731620D01*
X33775714Y30684000D01*
X33870952Y30588762D01*
X33918571Y30398286D01*
X33918571Y30064953D01*
X33870952Y29874477D01*
X33775714Y29779239D01*
X33680476Y29731620D01*
X33490000Y29731620D01*
X33394761Y29779239D01*
X33299523Y29874477D01*
X33251904Y30064953D01*
X33251904Y30398286D01*
X33299523Y30588762D01*
X33394761Y30684000D01*
X33490000Y30731620D01*
X34347142Y29731620D02*
X34347142Y30731620D01*
X34585238Y30731620D01*
X34728095Y30684000D01*
X34823333Y30588762D01*
X34870952Y30493524D01*
X34918571Y30303048D01*
X34918571Y30160191D01*
X34870952Y29969715D01*
X34823333Y29874477D01*
X34728095Y29779239D01*
X34585238Y29731620D01*
X34347142Y29731620D01*
X35870952Y29731620D02*
X35299523Y29731620D01*
X35585238Y29731620D02*
X35585238Y30731620D01*
X35490000Y30588762D01*
X35394761Y30493524D01*
X35299523Y30445905D01*
X36632857Y30255429D02*
X36775714Y30207810D01*
X36823333Y30160191D01*
X36870952Y30064953D01*
X36870952Y29922096D01*
X36823333Y29826858D01*
X36775714Y29779239D01*
X36680476Y29731620D01*
X36299523Y29731620D01*
X36299523Y30731620D01*
X36632857Y30731620D01*
X36728095Y30684000D01*
X36775714Y30636381D01*
X36823333Y30541143D01*
X36823333Y30445905D01*
X36775714Y30350667D01*
X36728095Y30303048D01*
X36632857Y30255429D01*
X36299523Y30255429D01*
X48527619Y20663334D02*
X49527619Y20663334D01*
X49527619Y20282381D01*
X49480000Y20187143D01*
X49432380Y20139524D01*
X49337142Y20091905D01*
X49194285Y20091905D01*
X49099047Y20139524D01*
X49051428Y20187143D01*
X49003809Y20282381D01*
X49003809Y20663334D01*
X48527619Y19663334D02*
X49527619Y19663334D01*
X48813333Y19330000D01*
X49527619Y18996667D01*
X48527619Y18996667D01*
X49527619Y18330000D02*
X49527619Y18139524D01*
X49480000Y18044286D01*
X49384761Y17949048D01*
X49194285Y17901429D01*
X48860952Y17901429D01*
X48670476Y17949048D01*
X48575238Y18044286D01*
X48527619Y18139524D01*
X48527619Y18330000D01*
X48575238Y18425239D01*
X48670476Y18520477D01*
X48860952Y18568096D01*
X49194285Y18568096D01*
X49384761Y18520477D01*
X49480000Y18425239D01*
X49527619Y18330000D01*
X48527619Y17472858D02*
X49527619Y17472858D01*
X49527619Y17234762D01*
X49480000Y17091905D01*
X49384761Y16996667D01*
X49289523Y16949048D01*
X49099047Y16901429D01*
X48956190Y16901429D01*
X48765714Y16949048D01*
X48670476Y16996667D01*
X48575238Y17091905D01*
X48527619Y17234762D01*
X48527619Y17472858D01*
X49432380Y16520477D02*
X49480000Y16472858D01*
X49527619Y16377620D01*
X49527619Y16139524D01*
X49480000Y16044286D01*
X49432380Y15996667D01*
X49337142Y15949048D01*
X49241904Y15949048D01*
X49099047Y15996667D01*
X48527619Y16568096D01*
X48527619Y15949048D01*
X42824428Y4188477D02*
X42824428Y4521810D01*
X42300619Y4521810D02*
X43300619Y4521810D01*
X43300619Y4045620D01*
X42300619Y3188477D02*
X42300619Y3664667D01*
X43300619Y3664667D01*
X42586333Y2902762D02*
X42586333Y2426572D01*
X42300619Y2998000D02*
X43300619Y2664667D01*
X42300619Y2331334D01*
X42348238Y2045620D02*
X42300619Y1902762D01*
X42300619Y1664667D01*
X42348238Y1569429D01*
X42395857Y1521810D01*
X42491095Y1474191D01*
X42586333Y1474191D01*
X42681571Y1521810D01*
X42729190Y1569429D01*
X42776809Y1664667D01*
X42824428Y1855143D01*
X42872047Y1950381D01*
X42919666Y1998000D01*
X43014904Y2045620D01*
X43110142Y2045620D01*
X43205380Y1998000D01*
X43253000Y1950381D01*
X43300619Y1855143D01*
X43300619Y1617048D01*
X43253000Y1474191D01*
X42300619Y1045620D02*
X43300619Y1045620D01*
X42824428Y1045620D02*
X42824428Y474191D01*
X42300619Y474191D02*
X43300619Y474191D01*
X15652380Y6297620D02*
X15319047Y6773810D01*
X15080952Y6297620D02*
X15080952Y7297620D01*
X15461904Y7297620D01*
X15557142Y7250000D01*
X15604761Y7202381D01*
X15652380Y7107143D01*
X15652380Y6964286D01*
X15604761Y6869048D01*
X15557142Y6821429D01*
X15461904Y6773810D01*
X15080952Y6773810D01*
X16604761Y7250000D02*
X16509523Y7297620D01*
X16366666Y7297620D01*
X16223809Y7250000D01*
X16128571Y7154762D01*
X16080952Y7059524D01*
X16033333Y6869048D01*
X16033333Y6726191D01*
X16080952Y6535715D01*
X16128571Y6440477D01*
X16223809Y6345239D01*
X16366666Y6297620D01*
X16461904Y6297620D01*
X16604761Y6345239D01*
X16652380Y6392858D01*
X16652380Y6726191D01*
X16461904Y6726191D01*
X17414285Y6821429D02*
X17557142Y6773810D01*
X17604761Y6726191D01*
X17652380Y6630953D01*
X17652380Y6488096D01*
X17604761Y6392858D01*
X17557142Y6345239D01*
X17461904Y6297620D01*
X17080952Y6297620D01*
X17080952Y7297620D01*
X17414285Y7297620D01*
X17509523Y7250000D01*
X17557142Y7202381D01*
X17604761Y7107143D01*
X17604761Y7011905D01*
X17557142Y6916667D01*
X17509523Y6869048D01*
X17414285Y6821429D01*
X17080952Y6821429D01*
X18557142Y6297620D02*
X18080952Y6297620D01*
X18080952Y7297620D01*
X18890476Y6821429D02*
X19223809Y6821429D01*
X19366666Y6297620D02*
X18890476Y6297620D01*
X18890476Y7297620D01*
X19366666Y7297620D01*
X19795238Y6297620D02*
X19795238Y7297620D01*
X20033333Y7297620D01*
X20176190Y7250000D01*
X20271428Y7154762D01*
X20319047Y7059524D01*
X20366666Y6869048D01*
X20366666Y6726191D01*
X20319047Y6535715D01*
X20271428Y6440477D01*
X20176190Y6345239D01*
X20033333Y6297620D01*
X19795238Y6297620D01*
X49062571Y8355715D02*
X49062571Y7593810D01*
X48681619Y7974762D02*
X49443523Y7974762D01*
X49681619Y6641429D02*
X49681619Y7117620D01*
X49205428Y7165239D01*
X49253047Y7117620D01*
X49300666Y7022381D01*
X49300666Y6784286D01*
X49253047Y6689048D01*
X49205428Y6641429D01*
X49110190Y6593810D01*
X48872095Y6593810D01*
X48776857Y6641429D01*
X48729238Y6689048D01*
X48681619Y6784286D01*
X48681619Y7022381D01*
X48729238Y7117620D01*
X48776857Y7165239D01*
X49681619Y6308096D02*
X48681619Y5974762D01*
X49681619Y5641429D01*
X9411904Y11500000D02*
X9316666Y11547620D01*
X9173809Y11547620D01*
X9030952Y11500000D01*
X8935714Y11404762D01*
X8888095Y11309524D01*
X8840476Y11119048D01*
X8840476Y10976191D01*
X8888095Y10785715D01*
X8935714Y10690477D01*
X9030952Y10595239D01*
X9173809Y10547620D01*
X9269047Y10547620D01*
X9411904Y10595239D01*
X9459523Y10642858D01*
X9459523Y10976191D01*
X9269047Y10976191D01*
X9459523Y8947620D02*
X9126190Y9423810D01*
X8888095Y8947620D02*
X8888095Y9947620D01*
X9269047Y9947620D01*
X9364285Y9900000D01*
X9411904Y9852381D01*
X9459523Y9757143D01*
X9459523Y9614286D01*
X9411904Y9519048D01*
X9364285Y9471429D01*
X9269047Y9423810D01*
X8888095Y9423810D01*
D12*
X24832142Y8967858D02*
X24796428Y9003572D01*
X24760714Y9110715D01*
X24760714Y9182143D01*
X24796428Y9289286D01*
X24867857Y9360715D01*
X24939285Y9396429D01*
X25082142Y9432143D01*
X25189285Y9432143D01*
X25332142Y9396429D01*
X25403571Y9360715D01*
X25475000Y9289286D01*
X25510714Y9182143D01*
X25510714Y9110715D01*
X25475000Y9003572D01*
X25439285Y8967858D01*
X24760714Y8646429D02*
X25510714Y8646429D01*
X25510714Y8467858D01*
X25475000Y8360715D01*
X25403571Y8289286D01*
X25332142Y8253572D01*
X25189285Y8217858D01*
X25082142Y8217858D01*
X24939285Y8253572D01*
X24867857Y8289286D01*
X24796428Y8360715D01*
X24760714Y8467858D01*
X24760714Y8646429D01*
X25510714Y7753572D02*
X25510714Y7610715D01*
X25475000Y7539286D01*
X25403571Y7467858D01*
X25260714Y7432143D01*
X25010714Y7432143D01*
X24867857Y7467858D01*
X24796428Y7539286D01*
X24760714Y7610715D01*
X24760714Y7753572D01*
X24796428Y7825000D01*
X24867857Y7896429D01*
X25010714Y7932143D01*
X25260714Y7932143D01*
X25403571Y7896429D01*
X25475000Y7825000D01*
X25510714Y7753572D01*
X24760714Y7110715D02*
X25510714Y7110715D01*
X24760714Y6682143D01*
X25510714Y6682143D01*
X25153571Y6325000D02*
X25153571Y6075000D01*
X24760714Y5967858D02*
X24760714Y6325000D01*
X25510714Y6325000D01*
X25510714Y5967858D01*
D11*
X4614285Y12414286D02*
X3947619Y12414286D01*
X4614285Y12842858D02*
X4090476Y12842858D01*
X3995238Y12795239D01*
X3947619Y12700000D01*
X3947619Y12557143D01*
X3995238Y12461905D01*
X4042857Y12414286D01*
X4471428Y11604762D02*
X4423809Y11461905D01*
X4376190Y11414286D01*
X4280952Y11366667D01*
X4138095Y11366667D01*
X4042857Y11414286D01*
X3995238Y11461905D01*
X3947619Y11557143D01*
X3947619Y11938096D01*
X4947619Y11938096D01*
X4947619Y11604762D01*
X4900000Y11509524D01*
X4852380Y11461905D01*
X4757142Y11414286D01*
X4661904Y11414286D01*
X4566666Y11461905D01*
X4519047Y11509524D01*
X4471428Y11604762D01*
X4471428Y11938096D01*
X4614285Y10509524D02*
X3947619Y10509524D01*
X4614285Y10938096D02*
X4090476Y10938096D01*
X3995238Y10890477D01*
X3947619Y10795239D01*
X3947619Y10652381D01*
X3995238Y10557143D01*
X4042857Y10509524D01*
X4614285Y10176191D02*
X4614285Y9795239D01*
X4947619Y10033334D02*
X4090476Y10033334D01*
X3995238Y9985715D01*
X3947619Y9890477D01*
X3947619Y9795239D01*
X4614285Y9604762D02*
X4614285Y9223810D01*
X4947619Y9461905D02*
X4090476Y9461905D01*
X3995238Y9414286D01*
X3947619Y9319048D01*
X3947619Y9223810D01*
X3947619Y8747620D02*
X3995238Y8842858D01*
X4042857Y8890477D01*
X4138095Y8938096D01*
X4423809Y8938096D01*
X4519047Y8890477D01*
X4566666Y8842858D01*
X4614285Y8747620D01*
X4614285Y8604762D01*
X4566666Y8509524D01*
X4519047Y8461905D01*
X4423809Y8414286D01*
X4138095Y8414286D01*
X4042857Y8461905D01*
X3995238Y8509524D01*
X3947619Y8604762D01*
X3947619Y8747620D01*
X4614285Y7985715D02*
X3947619Y7985715D01*
X4519047Y7985715D02*
X4566666Y7938096D01*
X4614285Y7842858D01*
X4614285Y7700000D01*
X4566666Y7604762D01*
X4471428Y7557143D01*
X3947619Y7557143D01*
D12*
X25767857Y27898750D02*
X25732142Y27934465D01*
X25660714Y28041608D01*
X25625000Y28113036D01*
X25589285Y28220179D01*
X25553571Y28398750D01*
X25553571Y28541608D01*
X25589285Y28720179D01*
X25625000Y28827322D01*
X25660714Y28898750D01*
X25732142Y29005893D01*
X25767857Y29041608D01*
X26482142Y28255893D02*
X26446428Y28220179D01*
X26339285Y28184465D01*
X26267857Y28184465D01*
X26160714Y28220179D01*
X26089285Y28291608D01*
X26053571Y28363036D01*
X26017857Y28505893D01*
X26017857Y28613036D01*
X26053571Y28755893D01*
X26089285Y28827322D01*
X26160714Y28898750D01*
X26267857Y28934465D01*
X26339285Y28934465D01*
X26446428Y28898750D01*
X26482142Y28863036D01*
X26732142Y27898750D02*
X26767857Y27934465D01*
X26839285Y28041608D01*
X26875000Y28113036D01*
X26910714Y28220179D01*
X26946428Y28398750D01*
X26946428Y28541608D01*
X26910714Y28720179D01*
X26875000Y28827322D01*
X26839285Y28898750D01*
X26767857Y29005893D01*
X26732142Y29041608D01*
X27839285Y28863036D02*
X27875000Y28898750D01*
X27946428Y28934465D01*
X28125000Y28934465D01*
X28196428Y28898750D01*
X28232142Y28863036D01*
X28267857Y28791608D01*
X28267857Y28720179D01*
X28232142Y28613036D01*
X27803571Y28184465D01*
X28267857Y28184465D01*
X28732142Y28934465D02*
X28803571Y28934465D01*
X28875000Y28898750D01*
X28910714Y28863036D01*
X28946428Y28791608D01*
X28982142Y28648750D01*
X28982142Y28470179D01*
X28946428Y28327322D01*
X28910714Y28255893D01*
X28875000Y28220179D01*
X28803571Y28184465D01*
X28732142Y28184465D01*
X28660714Y28220179D01*
X28625000Y28255893D01*
X28589285Y28327322D01*
X28553571Y28470179D01*
X28553571Y28648750D01*
X28589285Y28791608D01*
X28625000Y28863036D01*
X28660714Y28898750D01*
X28732142Y28934465D01*
X29267857Y28863036D02*
X29303571Y28898750D01*
X29375000Y28934465D01*
X29553571Y28934465D01*
X29625000Y28898750D01*
X29660714Y28863036D01*
X29696428Y28791608D01*
X29696428Y28720179D01*
X29660714Y28613036D01*
X29232142Y28184465D01*
X29696428Y28184465D01*
X30160714Y28934465D02*
X30232142Y28934465D01*
X30303571Y28898750D01*
X30339285Y28863036D01*
X30375000Y28791608D01*
X30410714Y28648750D01*
X30410714Y28470179D01*
X30375000Y28327322D01*
X30339285Y28255893D01*
X30303571Y28220179D01*
X30232142Y28184465D01*
X30160714Y28184465D01*
X30089285Y28220179D01*
X30053571Y28255893D01*
X30017857Y28327322D01*
X29982142Y28470179D01*
X29982142Y28648750D01*
X30017857Y28791608D01*
X30053571Y28863036D01*
X30089285Y28898750D01*
X30160714Y28934465D01*
X27767857Y27691250D02*
X27696428Y27726965D01*
X27589285Y27726965D01*
X27482142Y27691250D01*
X27410714Y27619822D01*
X27375000Y27548393D01*
X27339285Y27405536D01*
X27339285Y27298393D01*
X27375000Y27155536D01*
X27410714Y27084108D01*
X27482142Y27012679D01*
X27589285Y26976965D01*
X27660714Y26976965D01*
X27767857Y27012679D01*
X27803571Y27048393D01*
X27803571Y27298393D01*
X27660714Y27298393D01*
X28089285Y27012679D02*
X28160714Y26976965D01*
X28303571Y26976965D01*
X28375000Y27012679D01*
X28410714Y27084108D01*
X28410714Y27119822D01*
X28375000Y27191250D01*
X28303571Y27226965D01*
X28196428Y27226965D01*
X28125000Y27262679D01*
X28089285Y27334108D01*
X28089285Y27369822D01*
X28125000Y27441250D01*
X28196428Y27476965D01*
X28303571Y27476965D01*
X28375000Y27441250D01*
X28732142Y26976965D02*
X28732142Y27726965D01*
X28910714Y27726965D01*
X29017857Y27691250D01*
X29089285Y27619822D01*
X29125000Y27548393D01*
X29160714Y27405536D01*
X29160714Y27298393D01*
X29125000Y27155536D01*
X29089285Y27084108D01*
X29017857Y27012679D01*
X28910714Y26976965D01*
X28732142Y26976965D01*
D11*
X17631428Y26977143D02*
X18031428Y25777143D01*
X18431428Y26977143D01*
X19060000Y26977143D02*
X19174285Y26977143D01*
X19288571Y26920000D01*
X19345714Y26862858D01*
X19402857Y26748572D01*
X19460000Y26520000D01*
X19460000Y26234286D01*
X19402857Y26005715D01*
X19345714Y25891429D01*
X19288571Y25834286D01*
X19174285Y25777143D01*
X19060000Y25777143D01*
X18945714Y25834286D01*
X18888571Y25891429D01*
X18831428Y26005715D01*
X18774285Y26234286D01*
X18774285Y26520000D01*
X18831428Y26748572D01*
X18888571Y26862858D01*
X18945714Y26920000D01*
X19060000Y26977143D01*
X19974285Y25891429D02*
X20031428Y25834286D01*
X19974285Y25777143D01*
X19917142Y25834286D01*
X19974285Y25891429D01*
X19974285Y25777143D01*
X21174285Y25777143D02*
X20488571Y25777143D01*
X20831428Y25777143D02*
X20831428Y26977143D01*
X20717142Y26805715D01*
X20602857Y26691429D01*
X20488571Y26634286D01*
X1147619Y30333334D02*
X2147619Y30333334D01*
X2147619Y29952381D01*
X2100000Y29857143D01*
X2052380Y29809524D01*
X1957142Y29761905D01*
X1814285Y29761905D01*
X1719047Y29809524D01*
X1671428Y29857143D01*
X1623809Y29952381D01*
X1623809Y30333334D01*
X2147619Y29428572D02*
X1147619Y29190477D01*
X1861904Y29000000D01*
X1147619Y28809524D01*
X2147619Y28571429D01*
X1147619Y27619048D02*
X1623809Y27952381D01*
X1147619Y28190477D02*
X2147619Y28190477D01*
X2147619Y27809524D01*
X2100000Y27714286D01*
X2052380Y27666667D01*
X1957142Y27619048D01*
X1814285Y27619048D01*
X1719047Y27666667D01*
X1671428Y27714286D01*
X1623809Y27809524D01*
X1623809Y28190477D01*
X5827714Y32017620D02*
X5256285Y32017620D01*
X5542000Y32017620D02*
X5542000Y33017620D01*
X5446761Y32874762D01*
X5351523Y32779524D01*
X5256285Y32731905D01*
X5208666Y35557620D02*
X5875333Y35557620D01*
X5446761Y34557620D01*
X28068666Y35557620D02*
X28735333Y35557620D01*
X28306761Y34557620D01*
X28687714Y32017620D02*
X28116285Y32017620D01*
X28402000Y32017620D02*
X28402000Y33017620D01*
X28306761Y32874762D01*
X28211523Y32779524D01*
X28116285Y32731905D01*
X21988476Y33017620D02*
X21798000Y33017620D01*
X21702761Y32970000D01*
X21655142Y32922381D01*
X21559904Y32779524D01*
X21512285Y32589048D01*
X21512285Y32208096D01*
X21559904Y32112858D01*
X21607523Y32065239D01*
X21702761Y32017620D01*
X21893238Y32017620D01*
X21988476Y32065239D01*
X22036095Y32112858D01*
X22083714Y32208096D01*
X22083714Y32446191D01*
X22036095Y32541429D01*
X21988476Y32589048D01*
X21893238Y32636667D01*
X21702761Y32636667D01*
X21607523Y32589048D01*
X21559904Y32541429D01*
X21512285Y32446191D01*
X44848476Y33017620D02*
X44658000Y33017620D01*
X44562761Y32970000D01*
X44515142Y32922381D01*
X44419904Y32779524D01*
X44372285Y32589048D01*
X44372285Y32208096D01*
X44419904Y32112858D01*
X44467523Y32065239D01*
X44562761Y32017620D01*
X44753238Y32017620D01*
X44848476Y32065239D01*
X44896095Y32112858D01*
X44943714Y32208096D01*
X44943714Y32446191D01*
X44896095Y32541429D01*
X44848476Y32589048D01*
X44753238Y32636667D01*
X44562761Y32636667D01*
X44467523Y32589048D01*
X44419904Y32541429D01*
X44372285Y32446191D01*
X44594523Y35573620D02*
X44023095Y35573620D01*
X44308809Y35573620D02*
X44308809Y36573620D01*
X44213571Y36430762D01*
X44118333Y36335524D01*
X44023095Y36287905D01*
X44975476Y36478381D02*
X45023095Y36526000D01*
X45118333Y36573620D01*
X45356428Y36573620D01*
X45451666Y36526000D01*
X45499285Y36478381D01*
X45546904Y36383143D01*
X45546904Y36287905D01*
X45499285Y36145048D01*
X44927857Y35573620D01*
X45546904Y35573620D01*
X54507619Y26961334D02*
X54507619Y26294667D01*
X53507619Y26723239D01*
X50967619Y26342286D02*
X50967619Y26913715D01*
X50967619Y26628000D02*
X51967619Y26628000D01*
X51824761Y26723239D01*
X51729523Y26818477D01*
X51681904Y26913715D01*
D12*
X48459428Y12570620D02*
X48923714Y12570620D01*
X48673714Y12189667D01*
X48780857Y12189667D01*
X48852285Y12142048D01*
X48888000Y12094429D01*
X48923714Y11999191D01*
X48923714Y11761096D01*
X48888000Y11665858D01*
X48852285Y11618239D01*
X48780857Y11570620D01*
X48566571Y11570620D01*
X48495142Y11618239D01*
X48459428Y11665858D01*
X49138000Y12570620D02*
X49388000Y11570620D01*
X49638000Y12570620D01*
X49816571Y12570620D02*
X50280857Y12570620D01*
X50030857Y12189667D01*
X50138000Y12189667D01*
X50209428Y12142048D01*
X50245142Y12094429D01*
X50280857Y11999191D01*
X50280857Y11761096D01*
X50245142Y11665858D01*
X50209428Y11618239D01*
X50138000Y11570620D01*
X49923714Y11570620D01*
X49852285Y11618239D01*
X49816571Y11665858D01*
X43554619Y31378572D02*
X43554619Y30914286D01*
X43173666Y31164286D01*
X43173666Y31057143D01*
X43126047Y30985715D01*
X43078428Y30950000D01*
X42983190Y30914286D01*
X42745095Y30914286D01*
X42649857Y30950000D01*
X42602238Y30985715D01*
X42554619Y31057143D01*
X42554619Y31271429D01*
X42602238Y31342858D01*
X42649857Y31378572D01*
X43554619Y30700000D02*
X42554619Y30450000D01*
X43554619Y30200000D01*
X43554619Y30021429D02*
X43554619Y29557143D01*
X43173666Y29807143D01*
X43173666Y29700000D01*
X43126047Y29628572D01*
X43078428Y29592858D01*
X42983190Y29557143D01*
X42745095Y29557143D01*
X42649857Y29592858D01*
X42602238Y29628572D01*
X42554619Y29700000D01*
X42554619Y29914286D01*
X42602238Y29985715D01*
X42649857Y30021429D01*
X40713000Y30882429D02*
X40760619Y30953858D01*
X40760619Y31061000D01*
X40713000Y31168143D01*
X40617761Y31239572D01*
X40522523Y31275286D01*
X40332047Y31311000D01*
X40189190Y31311000D01*
X39998714Y31275286D01*
X39903476Y31239572D01*
X39808238Y31168143D01*
X39760619Y31061000D01*
X39760619Y30989572D01*
X39808238Y30882429D01*
X39855857Y30846715D01*
X40189190Y30846715D01*
X40189190Y30989572D01*
X39760619Y30525286D02*
X40760619Y30525286D01*
X39760619Y30096715D01*
X40760619Y30096715D01*
X39760619Y29739572D02*
X40760619Y29739572D01*
X40760619Y29561000D01*
X40713000Y29453858D01*
X40617761Y29382429D01*
X40522523Y29346715D01*
X40332047Y29311000D01*
X40189190Y29311000D01*
X39998714Y29346715D01*
X39903476Y29382429D01*
X39808238Y29453858D01*
X39760619Y29561000D01*
X39760619Y29739572D01*
X20694619Y31378572D02*
X20694619Y30914286D01*
X20313666Y31164286D01*
X20313666Y31057143D01*
X20266047Y30985715D01*
X20218428Y30950000D01*
X20123190Y30914286D01*
X19885095Y30914286D01*
X19789857Y30950000D01*
X19742238Y30985715D01*
X19694619Y31057143D01*
X19694619Y31271429D01*
X19742238Y31342858D01*
X19789857Y31378572D01*
X20694619Y30700000D02*
X19694619Y30450000D01*
X20694619Y30200000D01*
X20694619Y30021429D02*
X20694619Y29557143D01*
X20313666Y29807143D01*
X20313666Y29700000D01*
X20266047Y29628572D01*
X20218428Y29592858D01*
X20123190Y29557143D01*
X19885095Y29557143D01*
X19789857Y29592858D01*
X19742238Y29628572D01*
X19694619Y29700000D01*
X19694619Y29914286D01*
X19742238Y29985715D01*
X19789857Y30021429D01*
X17853000Y30882429D02*
X17900619Y30953858D01*
X17900619Y31061000D01*
X17853000Y31168143D01*
X17757761Y31239572D01*
X17662523Y31275286D01*
X17472047Y31311000D01*
X17329190Y31311000D01*
X17138714Y31275286D01*
X17043476Y31239572D01*
X16948238Y31168143D01*
X16900619Y31061000D01*
X16900619Y30989572D01*
X16948238Y30882429D01*
X16995857Y30846715D01*
X17329190Y30846715D01*
X17329190Y30989572D01*
X16900619Y30525286D02*
X17900619Y30525286D01*
X16900619Y30096715D01*
X17900619Y30096715D01*
X16900619Y29739572D02*
X17900619Y29739572D01*
X17900619Y29561000D01*
X17853000Y29453858D01*
X17757761Y29382429D01*
X17662523Y29346715D01*
X17472047Y29311000D01*
X17329190Y29311000D01*
X17138714Y29346715D01*
X17043476Y29382429D01*
X16948238Y29453858D01*
X16900619Y29561000D01*
X16900619Y29739572D01*
D11*
X21988523Y34557620D02*
X21417095Y34557620D01*
X21702809Y34557620D02*
X21702809Y35557620D01*
X21607571Y35414762D01*
X21512333Y35319524D01*
X21417095Y35271905D01*
X22369476Y35462381D02*
X22417095Y35510000D01*
X22512333Y35557620D01*
X22750428Y35557620D01*
X22845666Y35510000D01*
X22893285Y35462381D01*
X22940904Y35367143D01*
X22940904Y35271905D01*
X22893285Y35129048D01*
X22321857Y34557620D01*
X22940904Y34557620D01*
D12*
X48689571Y15317000D02*
X48618142Y15364620D01*
X48511000Y15364620D01*
X48403857Y15317000D01*
X48332428Y15221762D01*
X48296714Y15126524D01*
X48261000Y14936048D01*
X48261000Y14793191D01*
X48296714Y14602715D01*
X48332428Y14507477D01*
X48403857Y14412239D01*
X48511000Y14364620D01*
X48582428Y14364620D01*
X48689571Y14412239D01*
X48725285Y14459858D01*
X48725285Y14793191D01*
X48582428Y14793191D01*
X49046714Y14364620D02*
X49046714Y15364620D01*
X49475285Y14364620D01*
X49475285Y15364620D01*
X49832428Y14364620D02*
X49832428Y15364620D01*
X50011000Y15364620D01*
X50118142Y15317000D01*
X50189571Y15221762D01*
X50225285Y15126524D01*
X50261000Y14936048D01*
X50261000Y14793191D01*
X50225285Y14602715D01*
X50189571Y14507477D01*
X50118142Y14412239D01*
X50011000Y14364620D01*
X49832428Y14364620D01*
D11*
X53507619Y10181477D02*
X53507619Y10752905D01*
X53507619Y10467191D02*
X54507619Y10467191D01*
X54364761Y10562429D01*
X54269523Y10657667D01*
X54221904Y10752905D01*
X54412380Y9800524D02*
X54460000Y9752905D01*
X54507619Y9657667D01*
X54507619Y9419572D01*
X54460000Y9324334D01*
X54412380Y9276715D01*
X54317142Y9229096D01*
X54221904Y9229096D01*
X54079047Y9276715D01*
X53507619Y9848143D01*
X53507619Y9229096D01*
X51967619Y10181524D02*
X51967619Y10372000D01*
X51920000Y10467239D01*
X51872380Y10514858D01*
X51729523Y10610096D01*
X51539047Y10657715D01*
X51158095Y10657715D01*
X51062857Y10610096D01*
X51015238Y10562477D01*
X50967619Y10467239D01*
X50967619Y10276762D01*
X51015238Y10181524D01*
X51062857Y10133905D01*
X51158095Y10086286D01*
X51396190Y10086286D01*
X51491428Y10133905D01*
X51539047Y10181524D01*
X51586666Y10276762D01*
X51586666Y10467239D01*
X51539047Y10562477D01*
X51491428Y10610096D01*
X51396190Y10657715D01*
D12*
X39768571Y4141000D02*
X39697142Y4188620D01*
X39590000Y4188620D01*
X39482857Y4141000D01*
X39411428Y4045762D01*
X39375714Y3950524D01*
X39340000Y3760048D01*
X39340000Y3617191D01*
X39375714Y3426715D01*
X39411428Y3331477D01*
X39482857Y3236239D01*
X39590000Y3188620D01*
X39661428Y3188620D01*
X39768571Y3236239D01*
X39804285Y3283858D01*
X39804285Y3617191D01*
X39661428Y3617191D01*
X40125714Y3188620D02*
X40125714Y4188620D01*
X40554285Y3188620D01*
X40554285Y4188620D01*
X40911428Y3188620D02*
X40911428Y4188620D01*
X41090000Y4188620D01*
X41197142Y4141000D01*
X41268571Y4045762D01*
X41304285Y3950524D01*
X41340000Y3760048D01*
X41340000Y3617191D01*
X41304285Y3426715D01*
X41268571Y3331477D01*
X41197142Y3236239D01*
X41090000Y3188620D01*
X40911428Y3188620D01*
X37050000Y3188620D02*
X37050000Y4188620D01*
X37550000Y4188620D02*
X37692857Y4188620D01*
X37764285Y4141000D01*
X37835714Y4045762D01*
X37871428Y3855286D01*
X37871428Y3521953D01*
X37835714Y3331477D01*
X37764285Y3236239D01*
X37692857Y3188620D01*
X37550000Y3188620D01*
X37478571Y3236239D01*
X37407142Y3331477D01*
X37371428Y3521953D01*
X37371428Y3855286D01*
X37407142Y4045762D01*
X37478571Y4141000D01*
X37550000Y4188620D01*
X38121428Y4188620D02*
X38585714Y4188620D01*
X38335714Y3807667D01*
X38442857Y3807667D01*
X38514285Y3760048D01*
X38550000Y3712429D01*
X38585714Y3617191D01*
X38585714Y3379096D01*
X38550000Y3283858D01*
X38514285Y3236239D01*
X38442857Y3188620D01*
X38228571Y3188620D01*
X38157142Y3236239D01*
X38121428Y3283858D01*
X34510000Y3188620D02*
X34510000Y4188620D01*
X35010000Y4188620D02*
X35152857Y4188620D01*
X35224285Y4141000D01*
X35295714Y4045762D01*
X35331428Y3855286D01*
X35331428Y3521953D01*
X35295714Y3331477D01*
X35224285Y3236239D01*
X35152857Y3188620D01*
X35010000Y3188620D01*
X34938571Y3236239D01*
X34867142Y3331477D01*
X34831428Y3521953D01*
X34831428Y3855286D01*
X34867142Y4045762D01*
X34938571Y4141000D01*
X35010000Y4188620D01*
X35617142Y4093381D02*
X35652857Y4141000D01*
X35724285Y4188620D01*
X35902857Y4188620D01*
X35974285Y4141000D01*
X36010000Y4093381D01*
X36045714Y3998143D01*
X36045714Y3902905D01*
X36010000Y3760048D01*
X35581428Y3188620D01*
X36045714Y3188620D01*
X31970000Y3188620D02*
X31970000Y4188620D01*
X32470000Y4188620D02*
X32612857Y4188620D01*
X32684285Y4141000D01*
X32755714Y4045762D01*
X32791428Y3855286D01*
X32791428Y3521953D01*
X32755714Y3331477D01*
X32684285Y3236239D01*
X32612857Y3188620D01*
X32470000Y3188620D01*
X32398571Y3236239D01*
X32327142Y3331477D01*
X32291428Y3521953D01*
X32291428Y3855286D01*
X32327142Y4045762D01*
X32398571Y4141000D01*
X32470000Y4188620D01*
X33505714Y3188620D02*
X33077142Y3188620D01*
X33291428Y3188620D02*
X33291428Y4188620D01*
X33220000Y4045762D01*
X33148571Y3950524D01*
X33077142Y3902905D01*
X29430000Y3147620D02*
X29430000Y4147620D01*
X29930000Y4147620D02*
X30072857Y4147620D01*
X30144285Y4100000D01*
X30215714Y4004762D01*
X30251428Y3814286D01*
X30251428Y3480953D01*
X30215714Y3290477D01*
X30144285Y3195239D01*
X30072857Y3147620D01*
X29930000Y3147620D01*
X29858571Y3195239D01*
X29787142Y3290477D01*
X29751428Y3480953D01*
X29751428Y3814286D01*
X29787142Y4004762D01*
X29858571Y4100000D01*
X29930000Y4147620D01*
X30715714Y4147620D02*
X30787142Y4147620D01*
X30858571Y4100000D01*
X30894285Y4052381D01*
X30930000Y3957143D01*
X30965714Y3766667D01*
X30965714Y3528572D01*
X30930000Y3338096D01*
X30894285Y3242858D01*
X30858571Y3195239D01*
X30787142Y3147620D01*
X30715714Y3147620D01*
X30644285Y3195239D01*
X30608571Y3242858D01*
X30572857Y3338096D01*
X30537142Y3528572D01*
X30537142Y3766667D01*
X30572857Y3957143D01*
X30608571Y4052381D01*
X30644285Y4100000D01*
X30715714Y4147620D01*
X26675714Y3236239D02*
X26782857Y3188620D01*
X26961428Y3188620D01*
X27032857Y3236239D01*
X27068571Y3283858D01*
X27104285Y3379096D01*
X27104285Y3474334D01*
X27068571Y3569572D01*
X27032857Y3617191D01*
X26961428Y3664810D01*
X26818571Y3712429D01*
X26747142Y3760048D01*
X26711428Y3807667D01*
X26675714Y3902905D01*
X26675714Y3998143D01*
X26711428Y4093381D01*
X26747142Y4141000D01*
X26818571Y4188620D01*
X26997142Y4188620D01*
X27104285Y4141000D01*
X27854285Y3283858D02*
X27818571Y3236239D01*
X27711428Y3188620D01*
X27640000Y3188620D01*
X27532857Y3236239D01*
X27461428Y3331477D01*
X27425714Y3426715D01*
X27390000Y3617191D01*
X27390000Y3760048D01*
X27425714Y3950524D01*
X27461428Y4045762D01*
X27532857Y4141000D01*
X27640000Y4188620D01*
X27711428Y4188620D01*
X27818571Y4141000D01*
X27854285Y4093381D01*
X28175714Y3188620D02*
X28175714Y4188620D01*
X28604285Y3188620D02*
X28282857Y3760048D01*
X28604285Y4188620D02*
X28175714Y3617191D01*
X24367857Y4471000D02*
X25117857Y4471000D01*
X24975000Y3283858D02*
X24939285Y3236239D01*
X24832142Y3188620D01*
X24760714Y3188620D01*
X24653571Y3236239D01*
X24582142Y3331477D01*
X24546428Y3426715D01*
X24510714Y3617191D01*
X24510714Y3760048D01*
X24546428Y3950524D01*
X24582142Y4045762D01*
X24653571Y4141000D01*
X24760714Y4188620D01*
X24832142Y4188620D01*
X24939285Y4141000D01*
X24975000Y4093381D01*
X25117857Y4471000D02*
X25832142Y4471000D01*
X25260714Y3236239D02*
X25367857Y3188620D01*
X25546428Y3188620D01*
X25617857Y3236239D01*
X25653571Y3283858D01*
X25689285Y3379096D01*
X25689285Y3474334D01*
X25653571Y3569572D01*
X25617857Y3617191D01*
X25546428Y3664810D01*
X25403571Y3712429D01*
X25332142Y3760048D01*
X25296428Y3807667D01*
X25260714Y3902905D01*
X25260714Y3998143D01*
X25296428Y4093381D01*
X25332142Y4141000D01*
X25403571Y4188620D01*
X25582142Y4188620D01*
X25689285Y4141000D01*
X21425000Y3035715D02*
X21067857Y3035715D01*
X21032142Y2678572D01*
X21067857Y2714286D01*
X21139285Y2750000D01*
X21317857Y2750000D01*
X21389285Y2714286D01*
X21425000Y2678572D01*
X21460714Y2607143D01*
X21460714Y2428572D01*
X21425000Y2357143D01*
X21389285Y2321429D01*
X21317857Y2285715D01*
X21139285Y2285715D01*
X21067857Y2321429D01*
X21032142Y2357143D01*
X21675000Y3035715D02*
X21925000Y2285715D01*
X22175000Y3035715D01*
X22567857Y3035715D02*
X22639285Y3035715D01*
X22710714Y3000000D01*
X22746428Y2964286D01*
X22782142Y2892858D01*
X22817857Y2750000D01*
X22817857Y2571429D01*
X22782142Y2428572D01*
X22746428Y2357143D01*
X22710714Y2321429D01*
X22639285Y2285715D01*
X22567857Y2285715D01*
X22496428Y2321429D01*
X22460714Y2357143D01*
X22425000Y2428572D01*
X22389285Y2571429D01*
X22389285Y2750000D01*
X22425000Y2892858D01*
X22460714Y2964286D01*
X22496428Y3000000D01*
X22567857Y3035715D01*
X13634285Y5575715D02*
X13705714Y5575715D01*
X13777142Y5540000D01*
X13812857Y5504286D01*
X13848571Y5432858D01*
X13884285Y5290000D01*
X13884285Y5111429D01*
X13848571Y4968572D01*
X13812857Y4897143D01*
X13777142Y4861429D01*
X13705714Y4825715D01*
X13634285Y4825715D01*
X13562857Y4861429D01*
X13527142Y4897143D01*
X13491428Y4968572D01*
X13455714Y5111429D01*
X13455714Y5290000D01*
X13491428Y5432858D01*
X13527142Y5504286D01*
X13562857Y5540000D01*
X13634285Y5575715D01*
X13884285Y2539715D02*
X13455714Y2539715D01*
X13670000Y2539715D02*
X13670000Y3289715D01*
X13598571Y3182572D01*
X13527142Y3111143D01*
X13455714Y3075429D01*
X15995714Y5504286D02*
X16031428Y5540000D01*
X16102857Y5575715D01*
X16281428Y5575715D01*
X16352857Y5540000D01*
X16388571Y5504286D01*
X16424285Y5432858D01*
X16424285Y5361429D01*
X16388571Y5254286D01*
X15960000Y4825715D01*
X16424285Y4825715D01*
X15745714Y2920715D02*
X15317142Y2920715D01*
X15531428Y2920715D02*
X15531428Y3670715D01*
X15460000Y3563572D01*
X15388571Y3492143D01*
X15317142Y3456429D01*
X15960000Y3670715D02*
X16210000Y2920715D01*
X16460000Y3670715D01*
X17102857Y2920715D02*
X16674285Y2920715D01*
X16888571Y2920715D02*
X16888571Y3670715D01*
X16817142Y3563572D01*
X16745714Y3492143D01*
X16674285Y3456429D01*
D13*
X28576190Y10973810D02*
X28409523Y11211905D01*
X28290476Y10973810D02*
X28290476Y11473810D01*
X28480952Y11473810D01*
X28528571Y11450000D01*
X28552380Y11426191D01*
X28576190Y11378572D01*
X28576190Y11307143D01*
X28552380Y11259524D01*
X28528571Y11235715D01*
X28480952Y11211905D01*
X28290476Y11211905D01*
X28766666Y11116667D02*
X29004761Y11116667D01*
X28719047Y10973810D02*
X28885714Y11473810D01*
X29052380Y10973810D01*
X29219047Y10973810D02*
X29219047Y11473810D01*
X29385714Y11116667D01*
X29552380Y11473810D01*
X29552380Y10973810D01*
X29671428Y10926191D02*
X30052380Y10926191D01*
X30457142Y11021429D02*
X30433333Y10997620D01*
X30361904Y10973810D01*
X30314285Y10973810D01*
X30242857Y10997620D01*
X30195238Y11045239D01*
X30171428Y11092858D01*
X30147619Y11188096D01*
X30147619Y11259524D01*
X30171428Y11354762D01*
X30195238Y11402381D01*
X30242857Y11450000D01*
X30314285Y11473810D01*
X30361904Y11473810D01*
X30433333Y11450000D01*
X30457142Y11426191D01*
X30647619Y10997620D02*
X30719047Y10973810D01*
X30838095Y10973810D01*
X30885714Y10997620D01*
X30909523Y11021429D01*
X30933333Y11069048D01*
X30933333Y11116667D01*
X30909523Y11164286D01*
X30885714Y11188096D01*
X30838095Y11211905D01*
X30742857Y11235715D01*
X30695238Y11259524D01*
X30671428Y11283334D01*
X30647619Y11330953D01*
X30647619Y11378572D01*
X30671428Y11426191D01*
X30695238Y11450000D01*
X30742857Y11473810D01*
X30861904Y11473810D01*
X30933333Y11450000D01*
D12*
X8896428Y925000D02*
X8825000Y960715D01*
X8717857Y960715D01*
X8610714Y925000D01*
X8539285Y853572D01*
X8503571Y782143D01*
X8467857Y639286D01*
X8467857Y532143D01*
X8503571Y389286D01*
X8539285Y317858D01*
X8610714Y246429D01*
X8717857Y210715D01*
X8789285Y210715D01*
X8896428Y246429D01*
X8932142Y282143D01*
X8932142Y532143D01*
X8789285Y532143D01*
X9932142Y210715D02*
X9682142Y567858D01*
X9503571Y210715D02*
X9503571Y960715D01*
X9789285Y960715D01*
X9860714Y925000D01*
X9896428Y889286D01*
X9932142Y817858D01*
X9932142Y710715D01*
X9896428Y639286D01*
X9860714Y603572D01*
X9789285Y567858D01*
X9503571Y567858D01*
X8521428Y5975000D02*
X8878571Y5975000D01*
X8450000Y5760715D02*
X8700000Y6510715D01*
X8950000Y5760715D01*
X7753571Y603572D02*
X7860714Y567858D01*
X7896428Y532143D01*
X7932142Y460715D01*
X7932142Y353572D01*
X7896428Y282143D01*
X7860714Y246429D01*
X7789285Y210715D01*
X7503571Y210715D01*
X7503571Y960715D01*
X7753571Y960715D01*
X7825000Y925000D01*
X7860714Y889286D01*
X7896428Y817858D01*
X7896428Y746429D01*
X7860714Y675000D01*
X7825000Y639286D01*
X7753571Y603572D01*
X7503571Y603572D01*
D11*
X44711904Y29047620D02*
X44711904Y30047620D01*
X45092857Y30047620D01*
X45188095Y30000000D01*
X45235714Y29952381D01*
X45283333Y29857143D01*
X45283333Y29714286D01*
X45235714Y29619048D01*
X45188095Y29571429D01*
X45092857Y29523810D01*
X44711904Y29523810D01*
X45664285Y29095239D02*
X45807142Y29047620D01*
X46045238Y29047620D01*
X46140476Y29095239D01*
X46188095Y29142858D01*
X46235714Y29238096D01*
X46235714Y29333334D01*
X46188095Y29428572D01*
X46140476Y29476191D01*
X46045238Y29523810D01*
X45854761Y29571429D01*
X45759523Y29619048D01*
X45711904Y29666667D01*
X45664285Y29761905D01*
X45664285Y29857143D01*
X45711904Y29952381D01*
X45759523Y30000000D01*
X45854761Y30047620D01*
X46092857Y30047620D01*
X46235714Y30000000D01*
X47235714Y29047620D02*
X46902380Y29523810D01*
X46664285Y29047620D02*
X46664285Y30047620D01*
X47045238Y30047620D01*
X47140476Y30000000D01*
X47188095Y29952381D01*
X47235714Y29857143D01*
X47235714Y29714286D01*
X47188095Y29619048D01*
X47140476Y29571429D01*
X47045238Y29523810D01*
X46664285Y29523810D01*
X47616666Y29333334D02*
X48092857Y29333334D01*
X47521428Y29047620D02*
X47854761Y30047620D01*
X48188095Y29047620D01*
X48521428Y29047620D02*
X48521428Y30047620D01*
X48854761Y29333334D01*
X49188095Y30047620D01*
X49188095Y29047620D01*
X11207142Y27752381D02*
X11207142Y28485715D01*
X11207142Y28852381D02*
X11159523Y28800000D01*
X11207142Y28747620D01*
X11254761Y28800000D01*
X11207142Y28852381D01*
X11207142Y28747620D01*
X12254761Y27857143D02*
X12207142Y27804762D01*
X12064285Y27752381D01*
X11969047Y27752381D01*
X11826190Y27804762D01*
X11730952Y27909524D01*
X11683333Y28014286D01*
X11635714Y28223810D01*
X11635714Y28380953D01*
X11683333Y28590477D01*
X11730952Y28695239D01*
X11826190Y28800000D01*
X11969047Y28852381D01*
X12064285Y28852381D01*
X12207142Y28800000D01*
X12254761Y28747620D01*
X12683333Y28328572D02*
X13016666Y28328572D01*
X13159523Y27752381D02*
X12683333Y27752381D01*
X12683333Y28852381D01*
X13159523Y28852381D01*
X13921428Y28328572D02*
X14064285Y28276191D01*
X14111904Y28223810D01*
X14159523Y28119048D01*
X14159523Y27961905D01*
X14111904Y27857143D01*
X14064285Y27804762D01*
X13969047Y27752381D01*
X13588095Y27752381D01*
X13588095Y28852381D01*
X13921428Y28852381D01*
X14016666Y28800000D01*
X14064285Y28747620D01*
X14111904Y28642858D01*
X14111904Y28538096D01*
X14064285Y28433334D01*
X14016666Y28380953D01*
X13921428Y28328572D01*
X13588095Y28328572D01*
X14588095Y27752381D02*
X14588095Y28485715D01*
X14588095Y28276191D02*
X14635714Y28380953D01*
X14683333Y28433334D01*
X14778571Y28485715D01*
X14873809Y28485715D01*
X15588095Y27804762D02*
X15492857Y27752381D01*
X15302380Y27752381D01*
X15207142Y27804762D01*
X15159523Y27909524D01*
X15159523Y28328572D01*
X15207142Y28433334D01*
X15302380Y28485715D01*
X15492857Y28485715D01*
X15588095Y28433334D01*
X15635714Y28328572D01*
X15635714Y28223810D01*
X15159523Y28119048D01*
X16492857Y27752381D02*
X16492857Y28328572D01*
X16445238Y28433334D01*
X16350000Y28485715D01*
X16159523Y28485715D01*
X16064285Y28433334D01*
X16492857Y27804762D02*
X16397619Y27752381D01*
X16159523Y27752381D01*
X16064285Y27804762D01*
X16016666Y27909524D01*
X16016666Y28014286D01*
X16064285Y28119048D01*
X16159523Y28171429D01*
X16397619Y28171429D01*
X16492857Y28223810D01*
X16969047Y27752381D02*
X16969047Y28852381D01*
X17064285Y28171429D02*
X17350000Y27752381D01*
X17350000Y28485715D02*
X16969047Y28066667D01*
X18159523Y27804762D02*
X18064285Y27752381D01*
X17873809Y27752381D01*
X17778571Y27804762D01*
X17730952Y27909524D01*
X17730952Y28328572D01*
X17778571Y28433334D01*
X17873809Y28485715D01*
X18064285Y28485715D01*
X18159523Y28433334D01*
X18207142Y28328572D01*
X18207142Y28223810D01*
X17730952Y28119048D01*
X18635714Y27752381D02*
X18635714Y28485715D01*
X18635714Y28276191D02*
X18683333Y28380953D01*
X18730952Y28433334D01*
X18826190Y28485715D01*
X18921428Y28485715D01*
X19254761Y28171429D02*
X20016666Y28171429D01*
X19635714Y27752381D02*
X19635714Y28590477D01*
X20492857Y28171429D02*
X21254761Y28171429D01*
X20873809Y27752381D02*
X20873809Y28590477D01*
X21730952Y28171429D02*
X22492857Y28171429D01*
X22111904Y27752381D02*
X22111904Y28590477D01*
X37823857Y10292381D02*
X37776238Y10340000D01*
X37728619Y10482858D01*
X37728619Y10578096D01*
X37776238Y10720953D01*
X37871476Y10816191D01*
X37966714Y10863810D01*
X38157190Y10911429D01*
X38300047Y10911429D01*
X38490523Y10863810D01*
X38585761Y10816191D01*
X38681000Y10720953D01*
X38728619Y10578096D01*
X38728619Y10482858D01*
X38681000Y10340000D01*
X38633380Y10292381D01*
X37728619Y9292381D02*
X38204809Y9625715D01*
X37728619Y9863810D02*
X38728619Y9863810D01*
X38728619Y9482858D01*
X38681000Y9387620D01*
X38633380Y9340000D01*
X38538142Y9292381D01*
X38395285Y9292381D01*
X38300047Y9340000D01*
X38252428Y9387620D01*
X38204809Y9482858D01*
X38204809Y9863810D01*
X38252428Y8863810D02*
X38252428Y8530477D01*
X37728619Y8387620D02*
X37728619Y8863810D01*
X38728619Y8863810D01*
X38728619Y8387620D01*
X37776238Y8006667D02*
X37728619Y7863810D01*
X37728619Y7625715D01*
X37776238Y7530477D01*
X37823857Y7482858D01*
X37919095Y7435239D01*
X38014333Y7435239D01*
X38109571Y7482858D01*
X38157190Y7530477D01*
X38204809Y7625715D01*
X38252428Y7816191D01*
X38300047Y7911429D01*
X38347666Y7959048D01*
X38442904Y8006667D01*
X38538142Y8006667D01*
X38633380Y7959048D01*
X38681000Y7911429D01*
X38728619Y7816191D01*
X38728619Y7578096D01*
X38681000Y7435239D01*
X38252428Y7006667D02*
X38252428Y6673334D01*
X37728619Y6530477D02*
X37728619Y7006667D01*
X38728619Y7006667D01*
X38728619Y6530477D01*
X38728619Y6244762D02*
X38728619Y5673334D01*
X37728619Y5959048D02*
X38728619Y5959048D01*
D12*
X21171428Y5560715D02*
X21635714Y5560715D01*
X21385714Y5275000D01*
X21492857Y5275000D01*
X21564285Y5239286D01*
X21600000Y5203572D01*
X21635714Y5132143D01*
X21635714Y4953572D01*
X21600000Y4882143D01*
X21564285Y4846429D01*
X21492857Y4810715D01*
X21278571Y4810715D01*
X21207142Y4846429D01*
X21171428Y4882143D01*
X21850000Y5560715D02*
X22100000Y4810715D01*
X22350000Y5560715D01*
X22528571Y5560715D02*
X22992857Y5560715D01*
X22742857Y5275000D01*
X22850000Y5275000D01*
X22921428Y5239286D01*
X22957142Y5203572D01*
X22992857Y5132143D01*
X22992857Y4953572D01*
X22957142Y4882143D01*
X22921428Y4846429D01*
X22850000Y4810715D01*
X22635714Y4810715D01*
X22564285Y4846429D01*
X22528571Y4882143D01*
D10*
X41261904Y13216667D02*
X40461904Y13216667D01*
X40842857Y13216667D02*
X40842857Y13673810D01*
X41261904Y13673810D02*
X40461904Y13673810D01*
X40880952Y14207143D02*
X41261904Y14207143D01*
X40461904Y13940477D02*
X40880952Y14207143D01*
X40461904Y14473810D01*
X41261904Y14740477D02*
X40461904Y14740477D01*
X40461904Y15045239D01*
X40500000Y15121429D01*
X40538095Y15159524D01*
X40614285Y15197620D01*
X40728571Y15197620D01*
X40804761Y15159524D01*
X40842857Y15121429D01*
X40880952Y15045239D01*
X40880952Y14740477D01*
X40842857Y15540477D02*
X40842857Y15807143D01*
X41261904Y15921429D02*
X41261904Y15540477D01*
X40461904Y15540477D01*
X40461904Y15921429D01*
X41261904Y16721429D02*
X40880952Y16454762D01*
X41261904Y16264286D02*
X40461904Y16264286D01*
X40461904Y16569048D01*
X40500000Y16645239D01*
X40538095Y16683334D01*
X40614285Y16721429D01*
X40728571Y16721429D01*
X40804761Y16683334D01*
X40842857Y16645239D01*
X40880952Y16569048D01*
X40880952Y16264286D01*
X41261904Y17521429D02*
X40880952Y17254762D01*
X41261904Y17064286D02*
X40461904Y17064286D01*
X40461904Y17369048D01*
X40500000Y17445239D01*
X40538095Y17483334D01*
X40614285Y17521429D01*
X40728571Y17521429D01*
X40804761Y17483334D01*
X40842857Y17445239D01*
X40880952Y17369048D01*
X40880952Y17064286D01*
X41033333Y17826191D02*
X41033333Y18207143D01*
X41261904Y17750000D02*
X40461904Y18016667D01*
X41261904Y18283334D01*
X41261904Y18550000D02*
X40461904Y18550000D01*
X41033333Y18816667D01*
X40461904Y19083334D01*
X41261904Y19083334D01*
D14*
X10330000Y26460000D02*
X10330000Y24010000D01*
X13550000Y24660000D02*
X13550000Y26460000D01*
X20210000Y13890000D02*
X20210000Y14365000D01*
X11465000Y23110000D02*
X10990000Y23110000D01*
X19735000Y13890000D02*
X20210000Y13890000D01*
X11465000Y13890000D02*
X10990000Y13890000D01*
X19735000Y23110000D02*
X20210000Y23110000D01*
X20210000Y23110000D02*
X20210000Y22635000D01*
X10990000Y13890000D02*
X10990000Y14365000D01*
X27265000Y6960000D02*
X27265000Y9245000D01*
X27265000Y9245000D02*
X25795000Y9245000D01*
X25795000Y9245000D02*
X25795000Y6960000D01*
X8485000Y11735000D02*
X6200000Y11735000D01*
X6200000Y10265000D02*
X8485000Y10265000D01*
X8485000Y10265000D02*
X8485000Y11735000D01*
X8485000Y8665000D02*
X8485000Y10135000D01*
X6200000Y8665000D02*
X8485000Y8665000D01*
X8485000Y10135000D02*
X6200000Y10135000D01*
X9182779Y18510000D02*
X8857221Y18510000D01*
X9182779Y17490000D02*
X8857221Y17490000D01*
X9182779Y20480000D02*
X8857221Y20480000D01*
X9182779Y21500000D02*
X8857221Y21500000D01*
X18212779Y24880000D02*
X17887221Y24880000D01*
X18212779Y23860000D02*
X17887221Y23860000D01*
X31980000Y28540000D02*
X31980000Y28040000D01*
X34340000Y28540000D02*
X34340000Y28040000D01*
X23950000Y6015000D02*
X23450000Y6015000D01*
X23950000Y8375000D02*
X23450000Y8375000D01*
X41090000Y30087221D02*
X41090000Y30412779D01*
X42110000Y30087221D02*
X42110000Y30412779D01*
X19210000Y30087221D02*
X19210000Y30412779D01*
X18190000Y30087221D02*
X18190000Y30412779D01*
X49037221Y12890000D02*
X49362779Y12890000D01*
X49037221Y13910000D02*
X49362779Y13910000D01*
X1330000Y8000000D02*
X2470000Y8000000D01*
X3480000Y8000000D02*
X3600000Y8000000D01*
X200000Y12400000D02*
X200000Y8000000D01*
X2470000Y12400000D02*
X1330000Y12400000D01*
X3600000Y12400000D02*
X3480000Y12400000D01*
X320000Y12400000D02*
X200000Y12400000D01*
X200000Y8000000D02*
X320000Y8000000D01*
X3600000Y8000000D02*
X3600000Y12400000D01*
D15*
X6990000Y1100000D02*
X6990000Y5000000D01*
X10410000Y1600000D02*
X10410000Y5000000D01*
D14*
X2335000Y24900000D02*
X2335000Y27185000D01*
X2335000Y27185000D02*
X865000Y27185000D01*
X865000Y27185000D02*
X865000Y24900000D01*
X4640000Y27700000D02*
X4640000Y25900000D01*
X7860000Y25900000D02*
X7860000Y28350000D01*
X23420000Y11860000D02*
X20970000Y11860000D01*
X21620000Y8640000D02*
X23420000Y8640000D01*
X25747221Y9730000D02*
X26072779Y9730000D01*
X25747221Y10750000D02*
X26072779Y10750000D01*
X37430000Y28540000D02*
X37430000Y28040000D01*
X35070000Y28540000D02*
X35070000Y28040000D01*
X23900000Y27140000D02*
X23400000Y27140000D01*
X23900000Y29500000D02*
X23400000Y29500000D01*
X41240000Y25000000D02*
X41240000Y21550000D01*
X41240000Y25000000D02*
X41240000Y26950000D01*
X46360000Y25000000D02*
X46360000Y26950000D01*
X46360000Y25000000D02*
X46360000Y23050000D01*
X21800000Y8380000D02*
X21300000Y8380000D01*
X21800000Y6020000D02*
X21300000Y6020000D01*
X500000Y13800000D02*
X-1400000Y13800000D01*
X-1400000Y23200000D02*
X-1400000Y13800000D01*
X4400000Y13800000D02*
X2400000Y13800000D01*
X4400000Y23200000D02*
X2400000Y23200000D01*
X500000Y23200000D02*
X-1400000Y23200000D01*
D15*
X41600000Y11800000D02*
X41600000Y18800000D01*
X47600000Y11800000D02*
X41600000Y11800000D01*
X42600000Y19800000D02*
X47600000Y19800000D01*
X41600000Y18800000D02*
X42600000Y19800000D01*
X47600000Y19800000D02*
X47600000Y11800000D01*
D14*
X20310000Y10998578D02*
X20310000Y10481422D01*
X18890000Y10998578D02*
X18890000Y10481422D01*
X16610000Y11340000D02*
X16610000Y9440000D01*
X18410000Y9740000D02*
X18410000Y11340000D01*
X13095279Y8290000D02*
X12769721Y8290000D01*
X13095279Y7270000D02*
X12769721Y7270000D01*
X23900000Y24530000D02*
X23400000Y24530000D01*
X23900000Y26890000D02*
X23400000Y26890000D01*
X25800000Y26300000D02*
X25800000Y12100000D01*
X40200000Y25800000D02*
X40200000Y26500000D01*
X40200000Y26500000D02*
X39500000Y26500000D01*
X40000000Y12100000D02*
X40000000Y26300000D01*
X25800000Y12100000D02*
X40000000Y12100000D01*
X40000000Y26300000D02*
X25800000Y26300000D01*
X35765000Y4365000D02*
X35765000Y4625000D01*
X33040000Y9815000D02*
X30315000Y9815000D01*
X33040000Y4365000D02*
X30315000Y4365000D01*
X33040000Y4365000D02*
X35765000Y4365000D01*
X30315000Y9815000D02*
X30315000Y9555000D01*
X30315000Y4365000D02*
X30315000Y4625000D01*
X35765000Y9815000D02*
X35765000Y9555000D01*
X30315000Y9555000D02*
X28640000Y9555000D01*
X33040000Y9815000D02*
X35765000Y9815000D01*
X19242779Y7780000D02*
X18917221Y7780000D01*
X19242779Y8800000D02*
X18917221Y8800000D01*
X13540000Y10458578D02*
X13540000Y9941422D01*
X14960000Y10458578D02*
X14960000Y9941422D01*
X48215000Y23365000D02*
X47715000Y23365000D01*
X48215000Y21005000D02*
X47715000Y21005000D01*
X48215000Y26665000D02*
X47715000Y26665000D01*
X48215000Y24305000D02*
X47715000Y24305000D01*
X13120000Y9210000D02*
X13120000Y10810000D01*
X11320000Y10810000D02*
X11320000Y8910000D01*
X8130000Y28730000D02*
X8130000Y28230000D01*
X10490000Y28730000D02*
X10490000Y28230000D01*
%LPC*%
D16*
X51420000Y24850000D03*
D17*
X51420000Y22310000D03*
X51420000Y19770000D03*
X51420000Y17230000D03*
X51420000Y14690000D03*
D18*
X51420000Y12150000D03*
D17*
X53960000Y24850000D03*
X53960000Y22310000D03*
X53960000Y19770000D03*
X53960000Y17230000D03*
X53960000Y14690000D03*
X53960000Y12150000D03*
D19*
X30180000Y32470000D03*
D17*
X32720000Y32470000D03*
X35260000Y32470000D03*
X37800000Y32470000D03*
X40340000Y32470000D03*
D18*
X42880000Y32470000D03*
D17*
X30180000Y35010000D03*
X32720000Y35010000D03*
X35260000Y35010000D03*
X37800000Y35010000D03*
X40340000Y35010000D03*
X42880000Y35010000D03*
D20*
X53000000Y34000000D03*
X3000000Y3000000D03*
X53000000Y3000000D03*
D21*
X9410000Y16750000D03*
X8440000Y16750000D03*
D22*
X12400000Y1990000D03*
D23*
X12400000Y4530000D03*
X14940000Y1990000D03*
X14940000Y4530000D03*
X17480000Y1990000D03*
X17480000Y4530000D03*
X20020000Y1990000D03*
X20020000Y4530000D03*
D20*
X3000000Y34000000D03*
D24*
X51420000Y7070000D03*
D23*
X53960000Y7070000D03*
D25*
X9650000Y24465000D03*
X9650000Y25435000D03*
X15260000Y24605000D03*
X15260000Y25575000D03*
D21*
X17955000Y12940000D03*
X16985000Y12940000D03*
D26*
X5535000Y24390000D03*
X6505000Y24390000D03*
D25*
X20020000Y24085000D03*
X20020000Y25055000D03*
D26*
X13355000Y12920000D03*
X14325000Y12920000D03*
X6515000Y12500000D03*
X7485000Y12500000D03*
D21*
X1785000Y6600000D03*
X815000Y6600000D03*
X9455000Y19740000D03*
X8485000Y19740000D03*
X9410000Y14750000D03*
X8440000Y14750000D03*
D26*
X8440000Y15750000D03*
X9410000Y15750000D03*
X8425000Y23230000D03*
X9395000Y23230000D03*
D21*
X9410000Y22250000D03*
X8440000Y22250000D03*
D27*
X10990000Y24460000D03*
X11940000Y24460000D03*
X12890000Y24460000D03*
X12890000Y26660000D03*
X11940000Y26660000D03*
X10990000Y26660000D03*
D28*
X11150000Y22250000D03*
X11150000Y21750000D03*
X11150000Y21250000D03*
X11150000Y20750000D03*
X11150000Y20250000D03*
X11150000Y19750000D03*
X11150000Y19250000D03*
X11150000Y18750000D03*
X11150000Y18250000D03*
X11150000Y17750000D03*
X11150000Y17250000D03*
X11150000Y16750000D03*
X11150000Y16250000D03*
X11150000Y15750000D03*
X11150000Y15250000D03*
X11150000Y14750000D03*
D29*
X11850000Y14050000D03*
X12350000Y14050000D03*
X12850000Y14050000D03*
X13350000Y14050000D03*
X13850000Y14050000D03*
X14350000Y14050000D03*
X14850000Y14050000D03*
X15350000Y14050000D03*
X15850000Y14050000D03*
X16350000Y14050000D03*
X16850000Y14050000D03*
X17350000Y14050000D03*
X17850000Y14050000D03*
X18350000Y14050000D03*
X18850000Y14050000D03*
X19350000Y14050000D03*
D28*
X20050000Y14750000D03*
X20050000Y15250000D03*
X20050000Y15750000D03*
X20050000Y16250000D03*
X20050000Y16750000D03*
X20050000Y17250000D03*
X20050000Y17750000D03*
X20050000Y18250000D03*
X20050000Y18750000D03*
X20050000Y19250000D03*
X20050000Y19750000D03*
X20050000Y20250000D03*
X20050000Y20750000D03*
X20050000Y21250000D03*
X20050000Y21750000D03*
X20050000Y22250000D03*
D29*
X19350000Y22950000D03*
X18850000Y22950000D03*
X18350000Y22950000D03*
X17850000Y22950000D03*
X17350000Y22950000D03*
X16850000Y22950000D03*
X16350000Y22950000D03*
X15850000Y22950000D03*
X15350000Y22950000D03*
X14850000Y22950000D03*
X14350000Y22950000D03*
X13850000Y22950000D03*
X13350000Y22950000D03*
X12850000Y22950000D03*
X12350000Y22950000D03*
X11850000Y22950000D03*
D30*
X15600010Y18499993D03*
D25*
X14280000Y24605000D03*
X14280000Y25575000D03*
D21*
X9405000Y13740000D03*
X8435000Y13740000D03*
D25*
X27830000Y7575000D03*
X27830000Y8545000D03*
D26*
X6515000Y8000000D03*
X7485000Y8000000D03*
D31*
X26530000Y8547500D03*
X26530000Y6972500D03*
D32*
X7787500Y11000000D03*
X6212500Y11000000D03*
X7787500Y9400000D03*
X6212500Y9400000D03*
D21*
X36685000Y10670000D03*
X35715000Y10670000D03*
D26*
X21925000Y19200000D03*
X22895000Y19200000D03*
X21365000Y16180000D03*
X22335000Y16180000D03*
D21*
X9645000Y26540000D03*
X8675000Y26540000D03*
D19*
X7320000Y32470000D03*
D17*
X9860000Y32470000D03*
X12400000Y32470000D03*
X14940000Y32470000D03*
X17480000Y32470000D03*
D18*
X20020000Y32470000D03*
D17*
X7320000Y35010000D03*
X9860000Y35010000D03*
X12400000Y35010000D03*
X14940000Y35010000D03*
X17480000Y35010000D03*
X20020000Y35010000D03*
D22*
X25100000Y32470000D03*
D23*
X25100000Y35010000D03*
D22*
X25100000Y1990000D03*
D23*
X27640000Y1990000D03*
X30180000Y1990000D03*
X32720000Y1990000D03*
X35260000Y1990000D03*
X37800000Y1990000D03*
X40340000Y1990000D03*
D32*
X9807500Y18000000D03*
X8232500Y18000000D03*
X9807500Y20990000D03*
X8232500Y20990000D03*
D33*
X3900000Y26185000D03*
X3900000Y25215000D03*
X2900000Y26185000D03*
X2900000Y25215000D03*
D32*
X18837500Y24370000D03*
X17262500Y24370000D03*
D34*
X32410000Y27790000D03*
D35*
X32910000Y27790000D03*
X33410000Y27790000D03*
D34*
X33910000Y27790000D03*
X33910000Y28790000D03*
D35*
X33410000Y28790000D03*
X32910000Y28790000D03*
D34*
X32410000Y28790000D03*
D26*
X21913230Y18244152D03*
X22883230Y18244152D03*
D36*
X40340000Y9610000D03*
D23*
X40340000Y7070000D03*
D37*
X23200000Y7945000D03*
D38*
X23200000Y7445000D03*
X23200000Y6945000D03*
D37*
X23200000Y6445000D03*
X24200000Y6445000D03*
D38*
X24200000Y6945000D03*
X24200000Y7445000D03*
D37*
X24200000Y7945000D03*
D39*
X41600000Y29462500D03*
X41600000Y31037500D03*
X18700000Y29462500D03*
X18700000Y31037500D03*
D40*
X48412500Y13400000D03*
X49987500Y13400000D03*
D41*
X2975000Y8125000D03*
X2975000Y12275000D03*
X825000Y12275000D03*
X825000Y8125000D03*
D42*
X29600000Y10300000D03*
D43*
X7700000Y1750000D03*
X8700000Y1750000D03*
X9700000Y1750000D03*
X9700000Y4850000D03*
X8700000Y4850000D03*
X7700000Y4850000D03*
D31*
X1600000Y26487500D03*
X1600000Y24912500D03*
D26*
X19365000Y12930000D03*
X20335000Y12930000D03*
X44200000Y20600000D03*
X45170000Y20600000D03*
D25*
X9650000Y7445000D03*
X9650000Y8415000D03*
D21*
X24400000Y23650000D03*
X23430000Y23650000D03*
D33*
X10640000Y10260000D03*
X10640000Y9290000D03*
D44*
X7200000Y27900000D03*
X6250000Y27900000D03*
X5300000Y27900000D03*
X5300000Y25700000D03*
X7200000Y25700000D03*
D21*
X24395000Y21230000D03*
X23425000Y21230000D03*
D45*
X21420000Y11200000D03*
X21420000Y10250000D03*
X21420000Y9300000D03*
X23620000Y9300000D03*
X23620000Y11200000D03*
D40*
X25122500Y10240000D03*
X26697500Y10240000D03*
D26*
X46315000Y10800000D03*
X47285000Y10800000D03*
D33*
X43800000Y10415000D03*
X43800000Y9445000D03*
D25*
X31320000Y27775000D03*
X31320000Y28745000D03*
D34*
X35500000Y27790000D03*
D35*
X36000000Y27790000D03*
X36500000Y27790000D03*
D34*
X37000000Y27790000D03*
X37000000Y28790000D03*
D35*
X36500000Y28790000D03*
X36000000Y28790000D03*
D34*
X35500000Y28790000D03*
D33*
X8680000Y25435000D03*
X8680000Y24465000D03*
D37*
X23150000Y29070000D03*
D38*
X23150000Y28570000D03*
X23150000Y28070000D03*
D37*
X23150000Y27570000D03*
X24150000Y27570000D03*
D38*
X24150000Y28070000D03*
X24150000Y28570000D03*
D37*
X24150000Y29070000D03*
D26*
X32585000Y10680000D03*
X33555000Y10680000D03*
D25*
X39200000Y27765000D03*
X39200000Y28735000D03*
D33*
X42660000Y10415000D03*
X42660000Y9445000D03*
D46*
X41895000Y22525000D03*
X43165000Y22525000D03*
X44435000Y22525000D03*
X45705000Y22525000D03*
X45705000Y27475000D03*
X44435000Y27475000D03*
X43165000Y27475000D03*
X41895000Y27475000D03*
D37*
X21050000Y7950000D03*
D38*
X21050000Y7450000D03*
X21050000Y6950000D03*
D37*
X21050000Y6450000D03*
X22050000Y6450000D03*
D38*
X22050000Y6950000D03*
X22050000Y7450000D03*
D37*
X22050000Y7950000D03*
D33*
X45000000Y10415000D03*
X45000000Y9445000D03*
D47*
X5100000Y21390000D03*
X5100000Y15610000D03*
D48*
X6545000Y21750000D03*
X6545000Y20950000D03*
D49*
X6545000Y19750000D03*
X6545000Y18750000D03*
X6545000Y18250000D03*
X6545000Y17250000D03*
D48*
X6545000Y16050000D03*
X6545000Y15250000D03*
X6545000Y15250000D03*
X6545000Y16050000D03*
D49*
X6545000Y16750000D03*
X6545000Y17750000D03*
X6545000Y19250000D03*
X6545000Y20250000D03*
D48*
X6545000Y20950000D03*
X6545000Y21750000D03*
D50*
X1450000Y14180000D03*
D51*
X5630000Y14180000D03*
X5630000Y22820000D03*
D50*
X1450000Y22820000D03*
D52*
X43600000Y17800000D03*
X44600000Y17800000D03*
X45600000Y17800000D03*
X46600000Y17800000D03*
X42600000Y16800000D03*
X43600000Y16800000D03*
X44600000Y16800000D03*
X45600000Y16800000D03*
X46600000Y16800000D03*
X42600000Y15800000D03*
X43600000Y15800000D03*
X44600000Y15800000D03*
X45600000Y15800000D03*
X46600000Y15800000D03*
X42600000Y14800000D03*
X43600000Y14800000D03*
X44600000Y14800000D03*
X45600000Y14800000D03*
X46600000Y14800000D03*
X42600000Y13800000D03*
X43600000Y13800000D03*
X44600000Y13800000D03*
X45600000Y13800000D03*
X46600000Y13800000D03*
D53*
X19600000Y11677500D03*
X19600000Y9802500D03*
D54*
X16972500Y9690000D03*
D55*
X17510000Y9615000D03*
D54*
X18047500Y9690000D03*
X18047500Y11390000D03*
D55*
X17510000Y11465000D03*
D54*
X16972500Y11390000D03*
D21*
X24405000Y22210000D03*
X23435000Y22210000D03*
X22335000Y14800000D03*
X21365000Y14800000D03*
X17155000Y8360000D03*
X16185000Y8360000D03*
D32*
X13720000Y7780000D03*
X12145000Y7780000D03*
D26*
X41800000Y20600000D03*
X42770000Y20600000D03*
D37*
X23150000Y26460000D03*
D38*
X23150000Y25960000D03*
X23150000Y25460000D03*
D37*
X23150000Y24960000D03*
X24150000Y24960000D03*
D38*
X24150000Y25460000D03*
X24150000Y25960000D03*
D37*
X24150000Y26460000D03*
D56*
X38900000Y25200000D03*
X38900000Y24400000D03*
X38900000Y23600000D03*
X38900000Y22800000D03*
X38900000Y22000000D03*
X38900000Y21200000D03*
X38900000Y20400000D03*
X38900000Y19600000D03*
X38900000Y18800000D03*
X38900000Y18000000D03*
X38900000Y17200000D03*
X38900000Y16400000D03*
X38900000Y15600000D03*
X38900000Y14800000D03*
X38900000Y14000000D03*
X38900000Y13200000D03*
X38100000Y25200000D03*
X38100000Y24400000D03*
X38100000Y23600000D03*
X38100000Y22800000D03*
X38100000Y22000000D03*
X38100000Y21200000D03*
X38100000Y20400000D03*
X38100000Y19600000D03*
X38100000Y18800000D03*
X38100000Y18000000D03*
X38100000Y17200000D03*
X38100000Y16400000D03*
X38100000Y15600000D03*
X38100000Y14800000D03*
X38100000Y14000000D03*
X38100000Y13200000D03*
X37300000Y25200000D03*
X37300000Y24400000D03*
X37300000Y23600000D03*
X37300000Y22800000D03*
X37300000Y22000000D03*
X37300000Y21200000D03*
X37300000Y20400000D03*
X37300000Y19600000D03*
X37300000Y18800000D03*
X37300000Y18000000D03*
X37300000Y17200000D03*
X37300000Y16400000D03*
X37300000Y15600000D03*
X37300000Y14800000D03*
X37300000Y14000000D03*
X37300000Y13200000D03*
X36500000Y25200000D03*
X36500000Y24400000D03*
X36500000Y23600000D03*
X36500000Y22800000D03*
X36500000Y22000000D03*
X36500000Y21200000D03*
X36500000Y20400000D03*
X36500000Y19600000D03*
X36500000Y18800000D03*
X36500000Y18000000D03*
X36500000Y17200000D03*
X36500000Y16400000D03*
X36500000Y15600000D03*
X36500000Y14800000D03*
X36500000Y14000000D03*
X36500000Y13200000D03*
X35700000Y25200000D03*
X35700000Y24400000D03*
X35700000Y23600000D03*
X35700000Y22800000D03*
X35700000Y22000000D03*
X35700000Y21200000D03*
X35700000Y20400000D03*
X35700000Y19600000D03*
X35700000Y18800000D03*
X35700000Y18000000D03*
X35700000Y17200000D03*
X35700000Y16400000D03*
X35700000Y15600000D03*
X35700000Y14800000D03*
X35700000Y14000000D03*
X35700000Y13200000D03*
X34900000Y25200000D03*
X34900000Y24400000D03*
X34900000Y23600000D03*
X34900000Y22800000D03*
X34900000Y22000000D03*
X34900000Y21200000D03*
X34900000Y20400000D03*
X34900000Y19600000D03*
X34900000Y18800000D03*
X34900000Y18000000D03*
X34900000Y17200000D03*
X34900000Y16400000D03*
X34900000Y15600000D03*
X34900000Y14800000D03*
X34900000Y14000000D03*
X34900000Y13200000D03*
X34100000Y25200000D03*
X34100000Y24400000D03*
X34100000Y23600000D03*
X34100000Y22800000D03*
X34100000Y22000000D03*
X34100000Y21200000D03*
X34100000Y20400000D03*
X34100000Y19600000D03*
X34100000Y18800000D03*
X34100000Y18000000D03*
X34100000Y17200000D03*
X34100000Y16400000D03*
X34100000Y15600000D03*
X34100000Y14800000D03*
X34100000Y14000000D03*
X34100000Y13200000D03*
X33300000Y25200000D03*
X33300000Y24400000D03*
X33300000Y23600000D03*
X33300000Y22800000D03*
X33300000Y22000000D03*
X33300000Y21200000D03*
X33300000Y20400000D03*
X33300000Y19600000D03*
X33300000Y18800000D03*
X33300000Y18000000D03*
X33300000Y17200000D03*
X33300000Y16400000D03*
X33300000Y15600000D03*
X33300000Y14800000D03*
X33300000Y14000000D03*
X33300000Y13200000D03*
X32500000Y25200000D03*
X32500000Y24400000D03*
X32500000Y23600000D03*
X32500000Y22800000D03*
X32500000Y22000000D03*
X32500000Y21200000D03*
X32500000Y20400000D03*
X32500000Y19600000D03*
X32500000Y18800000D03*
X32500000Y18000000D03*
X32500000Y17200000D03*
X32500000Y16400000D03*
X32500000Y15600000D03*
X32500000Y14800000D03*
X32500000Y14000000D03*
X32500000Y13200000D03*
X31700000Y25200000D03*
X31700000Y24400000D03*
X31700000Y23600000D03*
X31700000Y22800000D03*
X31700000Y22000000D03*
X31700000Y21200000D03*
X31700000Y20400000D03*
X31700000Y19600000D03*
X31700000Y18800000D03*
X31700000Y18000000D03*
X31700000Y17200000D03*
X31700000Y16400000D03*
X31700000Y15600000D03*
X31700000Y14800000D03*
X31700000Y14000000D03*
X31700000Y13200000D03*
X30900000Y25200000D03*
X30900000Y24400000D03*
X30900000Y23600000D03*
X30900000Y22800000D03*
X30900000Y22000000D03*
X30900000Y21200000D03*
X30900000Y20400000D03*
X30900000Y19600000D03*
X30900000Y18800000D03*
X30900000Y18000000D03*
X30900000Y17200000D03*
X30900000Y16400000D03*
X30900000Y15600000D03*
X30900000Y14800000D03*
X30900000Y14000000D03*
X30900000Y13200000D03*
X30100000Y25200000D03*
X30100000Y24400000D03*
X30100000Y23600000D03*
X30100000Y22800000D03*
X30100000Y22000000D03*
X30100000Y21200000D03*
X30100000Y20400000D03*
X30100000Y19600000D03*
X30100000Y18800000D03*
X30100000Y18000000D03*
X30100000Y17200000D03*
X30100000Y16400000D03*
X30100000Y15600000D03*
X30100000Y14800000D03*
X30100000Y14000000D03*
X30100000Y13200000D03*
X29300000Y25200000D03*
X29300000Y24400000D03*
X29300000Y23600000D03*
X29300000Y22800000D03*
X29300000Y22000000D03*
X29300000Y21200000D03*
X29300000Y20400000D03*
X29300000Y19600000D03*
X29300000Y18800000D03*
X29300000Y18000000D03*
X29300000Y17200000D03*
X29300000Y16400000D03*
X29300000Y15600000D03*
X29300000Y14800000D03*
X29300000Y14000000D03*
X29300000Y13200000D03*
X28500000Y25200000D03*
X28500000Y24400000D03*
X28500000Y23600000D03*
X28500000Y22800000D03*
X28500000Y22000000D03*
X28500000Y21200000D03*
X28500000Y20400000D03*
X28500000Y19600000D03*
X28500000Y18800000D03*
X28500000Y18000000D03*
X28500000Y17200000D03*
X28500000Y16400000D03*
X28500000Y15600000D03*
X28500000Y14800000D03*
X28500000Y14000000D03*
X28500000Y13200000D03*
X27700000Y25200000D03*
X27700000Y24400000D03*
X27700000Y23600000D03*
X27700000Y22800000D03*
X27700000Y22000000D03*
X27700000Y21200000D03*
X27700000Y20400000D03*
X27700000Y19600000D03*
X27700000Y18800000D03*
X27700000Y18000000D03*
X27700000Y17200000D03*
X27700000Y16400000D03*
X27700000Y15600000D03*
X27700000Y14800000D03*
X27700000Y14000000D03*
X27700000Y13200000D03*
X26900000Y25200000D03*
X26900000Y24400000D03*
X26900000Y23600000D03*
X26900000Y22800000D03*
X26900000Y22000000D03*
X26900000Y21200000D03*
X26900000Y20400000D03*
X26900000Y19600000D03*
X26900000Y18800000D03*
X26900000Y18000000D03*
X26900000Y17200000D03*
X26900000Y16400000D03*
X26900000Y15600000D03*
X26900000Y14800000D03*
X26900000Y14000000D03*
X26900000Y13200000D03*
D33*
X15930000Y10245000D03*
X15930000Y9275000D03*
D25*
X40250000Y27780000D03*
X40250000Y28750000D03*
D57*
X29440000Y8995000D03*
X29440000Y7725000D03*
X29440000Y6455000D03*
X29440000Y5185000D03*
X36640000Y5185000D03*
X36640000Y6455000D03*
X36640000Y7725000D03*
X36640000Y8995000D03*
D32*
X19867500Y8290000D03*
X18292500Y8290000D03*
D26*
X6515000Y6900000D03*
X7485000Y6900000D03*
X47465000Y27500000D03*
X48435000Y27500000D03*
D53*
X14250000Y11137500D03*
X14250000Y9262500D03*
D37*
X47465000Y22935000D03*
D38*
X47465000Y22435000D03*
X47465000Y21935000D03*
D37*
X47465000Y21435000D03*
X48465000Y21435000D03*
D38*
X48465000Y21935000D03*
X48465000Y22435000D03*
D37*
X48465000Y22935000D03*
X47465000Y26235000D03*
D38*
X47465000Y25735000D03*
X47465000Y25235000D03*
D37*
X47465000Y24735000D03*
X48465000Y24735000D03*
D38*
X48465000Y25235000D03*
X48465000Y25735000D03*
D37*
X48465000Y26235000D03*
D33*
X10640000Y8425000D03*
X10640000Y7455000D03*
D25*
X12170000Y11975000D03*
X12170000Y12945000D03*
X15920000Y11135000D03*
X15920000Y12105000D03*
X38100000Y27765000D03*
X38100000Y28735000D03*
D33*
X10520000Y12905000D03*
X10520000Y11935000D03*
X42580000Y7857500D03*
X42580000Y6887500D03*
D54*
X11682500Y9160000D03*
D55*
X12220000Y9085000D03*
D54*
X12757500Y9160000D03*
X12757500Y10860000D03*
D55*
X12220000Y10935000D03*
D54*
X11682500Y10860000D03*
D21*
X9405000Y12770000D03*
X8435000Y12770000D03*
D34*
X8560000Y27980000D03*
D35*
X9060000Y27980000D03*
X9560000Y27980000D03*
D34*
X10060000Y27980000D03*
X10060000Y28980000D03*
D35*
X9560000Y28980000D03*
X9060000Y28980000D03*
D34*
X8560000Y28980000D03*
M02*
